<?xml version="1.0" encoding="UTF-8" standalone="no"?>
<svg
   xmlns:dc="http://purl.org/dc/elements/1.1/"
   xmlns:cc="http://creativecommons.org/ns#"
   xmlns:rdf="http://www.w3.org/1999/02/22-rdf-syntax-ns#"
   xmlns:svg="http://www.w3.org/2000/svg"
   xmlns="http://www.w3.org/2000/svg"
   xmlns:sodipodi="http://sodipodi.sourceforge.net/DTD/sodipodi-0.dtd"
   xmlns:inkscape="http://www.inkscape.org/namespaces/inkscape"
   width="108.86983"
   height="108.98727"
   viewBox="0 0 28.805143 28.83622"
   version="1.1"
   id="svg8"
   inkscape:version="1.0.2 (1.0.2+r75+1)"
   sodipodi:docname="logo.svg"
   inkscape:export-filename="/home/hadim/Documents/valence/Platform/Libs/datamol/docs/images/logo.png"
   inkscape:export-xdpi="600"
   inkscape:export-ydpi="600">
  <defs
     id="defs2">
    <style
       type="text/css"
       id="style2">
      .cls-1 {
        fill: #ffa056;
      }

      .cls-2 {
        fill: #3d4752;
      }
    </style>
  </defs>
  <sodipodi:namedview
     id="base"
     pagecolor="#ffffff"
     bordercolor="#666666"
     borderopacity="1.0"
     inkscape:pageopacity="0"
     inkscape:pageshadow="2"
     inkscape:zoom="2.8"
     inkscape:cx="87.051638"
     inkscape:cy="79.374339"
     inkscape:document-units="px"
     inkscape:current-layer="layer1"
     inkscape:document-rotation="0"
     showgrid="false"
     inkscape:showpageshadow="false"
     inkscape:window-width="2480"
     inkscape:window-height="1324"
     inkscape:window-x="1707"
     inkscape:window-y="753"
     inkscape:window-maximized="0"
     fit-margin-top="0"
     fit-margin-left="0"
     fit-margin-right="0"
     fit-margin-bottom="0"
     units="px" />
  <metadata
     id="metadata5">
    <rdf:RDF>
      <cc:Work
         rdf:about="">
        <dc:format>image/svg+xml</dc:format>
        <dc:type
           rdf:resource="http://purl.org/dc/dcmitype/StillImage" />
        <dc:title></dc:title>
      </cc:Work>
    </rdf:RDF>
  </metadata>
  <g
     inkscape:label="Layer 1"
     inkscape:groupmode="layer"
     id="layer1"
     transform="translate(-56.842987,-147.03618)">
    <rect
       style="fill:#ffffff;fill-opacity:0;stroke-width:0.0994262"
       id="rect1377"
       width="28.805145"
       height="28.836216"
       x="56.842987"
       y="147.03618"
       inkscape:export-xdpi="300"
       inkscape:export-ydpi="300" />
    <g
       id="g1385"
       transform="matrix(1.327354,0,0,1.327354,-78.214185,-4.7360291)"
       style="fill:#343a40;fill-opacity:1">
      <path
         fill="url(#grad1)"
         class="cls-1"
         d="m 102.88099,118.03668 a 2.5319294,2.5319294 0 1 0 2.53192,-2.53193 2.5146033,2.5146033 0 0 0 -2.53192,2.53193 z"
         id="path1379"
         style="fill:#343a40;fill-opacity:1;stroke-width:0.894482" />
      <path
         fill="url(#grad1)"
         class="cls-1"
         d="m 105.43236,129.85883 a 2.5146033,2.5146033 0 0 1 2.53193,2.53193 2.5319294,2.5319294 0 0 1 -5.06385,0 2.5146033,2.5146033 0 0 1 2.53192,-2.53193 z"
         id="path1381"
         style="fill:#343a40;fill-opacity:1;stroke-width:0.894482" />
      <path
         fill="url(#grad2)"
         class="cls-1"
         d="m 110.05802,118.03668 a 2.5320009,2.5320009 0 1 1 5.06386,0 4.6505992,4.6505992 0 0 0 4.64511,4.64511 2.5320009,2.5320009 0 1 1 0,5.06385 4.6505992,4.6505992 0 0 0 -4.64511,4.64512 2.5319294,2.5319294 0 1 1 -2.53193,-2.53193 4.645116,4.645116 0 0 0 0,-9.29023 2.5435845,2.5435845 0 0 1 -2.53193,-2.53192 z"
         id="path1383"
         style="fill:#343a40;fill-opacity:1;stroke-width:0.894482" />
    </g>
  </g>
</svg>
