<?xml version="1.0" encoding="UTF-8" standalone="no"?>
<svg
   xmlns:dc="http://purl.org/dc/elements/1.1/"
   xmlns:cc="http://creativecommons.org/ns#"
   xmlns:rdf="http://www.w3.org/1999/02/22-rdf-syntax-ns#"
   xmlns:svg="http://www.w3.org/2000/svg"
   xmlns="http://www.w3.org/2000/svg"
   xmlns:sodipodi="http://sodipodi.sourceforge.net/DTD/sodipodi-0.dtd"
   xmlns:inkscape="http://www.inkscape.org/namespaces/inkscape"
   width="98.582504mm"
   height="98.588028mm"
   viewBox="0 0 98.582503 98.588027"
   version="1.1"
   id="svg8"
   inkscape:version="1.0.2 (1.0.2+r75+1)"
   sodipodi:docname="logo.svg"
   inkscape:export-filename="/home/hadim/Documents/valence/Platform/Libs/datamol/docs/images/logo-128x128.png"
   inkscape:export-xdpi="34.459221"
   inkscape:export-ydpi="34.459221">
  <defs
     id="defs2">
    <style
       type="text/css"
       id="style2">
      .cls-1 {
        fill: #ffa056;
      }

      .cls-2 {
        fill: #3d4752;
      }
    </style>
  </defs>
  <sodipodi:namedview
     id="base"
     pagecolor="#ffffff"
     bordercolor="#666666"
     borderopacity="1.0"
     inkscape:pageopacity="0"
     inkscape:pageshadow="2"
     inkscape:zoom="1.4"
     inkscape:cx="-83.567327"
     inkscape:cy="195.45204"
     inkscape:document-units="mm"
     inkscape:current-layer="layer1"
     inkscape:document-rotation="0"
     showgrid="false"
     fit-margin-top="0"
     fit-margin-left="0"
     fit-margin-right="0"
     fit-margin-bottom="0"
     inkscape:showpageshadow="false"
     inkscape:window-width="2131"
     inkscape:window-height="1199"
     inkscape:window-x="1465"
     inkscape:window-y="890"
     inkscape:window-maximized="0" />
  <metadata
     id="metadata5">
    <rdf:RDF>
      <cc:Work
         rdf:about="">
        <dc:format>image/svg+xml</dc:format>
        <dc:type
           rdf:resource="http://purl.org/dc/dcmitype/StillImage" />
        <dc:title></dc:title>
      </cc:Work>
    </rdf:RDF>
  </metadata>
  <g
     inkscape:label="Layer 1"
     inkscape:groupmode="layer"
     id="layer1"
     transform="translate(16.140326,-12.579513)">
    <path
       class="cls-1"
       d="M -14.023364,96.668378 A 12.289802,12.289802 0 1 1 -1.7335622,108.95818 12.205703,12.205703 0 0 1 -14.023364,96.668378 Z"
       id="path8"
       style="fill:#ffa724;fill-opacity:1;stroke:#503000;stroke-width:4.23333;stroke-miterlimit:4;stroke-dasharray:none;stroke-opacity:1" />
    <path
       class="cls-1"
       d="m -1.6391745,39.284549 a 12.205703,12.205703 0 0 0 12.2898015,-12.289802 12.289802,12.289802 0 0 0 -24.57956,0 12.205703,12.205703 0 0 0 12.2897585,12.289802 z"
       id="path10"
       style="fill:#ffa724;fill-opacity:1;stroke:#503000;stroke-width:4.23333;stroke-miterlimit:4;stroke-dasharray:none;stroke-opacity:1" />
    <path
       class="cls-1"
       d="m 20.813449,96.668378 a 12.290149,12.290149 0 1 0 24.579604,0 22.573672,22.573672 0 0 1 22.547013,-22.547014 12.290149,12.290149 0 1 0 0,-24.579559 22.573672,22.573672 0 0 1 -22.547013,-22.547058 12.289802,12.289802 0 1 0 -12.289803,12.289802 22.547057,22.547057 0 0 1 0,45.094071 12.346375,12.346375 0 0 0 -12.289801,12.289758 z"
       id="path12"
       style="fill:#ffa724;fill-opacity:1;stroke:#503000;stroke-width:4.23333;stroke-miterlimit:4;stroke-dasharray:none;stroke-opacity:1" />
  </g>
</svg>
