<svg width="961" height="325" viewBox="0 0 961 325" fill="none" xmlns="http://www.w3.org/2000/svg">
<g filter="url(#filter0_d_961_33321)">
<g filter="url(#filter1_d_961_33321)">
<rect x="5" width="951" height="315" rx="45.0936" fill="url(#paint0_linear_961_33321)"/>
</g>
<path d="M544.123 44.5014H441.965C427.295 44.5014 415.404 56.3932 415.404 71.0625V173.221C415.404 187.89 427.295 199.782 441.965 199.782H544.123C558.792 199.782 570.684 187.89 570.684 173.221V71.0625C570.684 56.3932 558.792 44.5014 544.123 44.5014Z" stroke="white" stroke-width="1.36211"/>
<path d="M684.902 123.31C685.168 123.044 685.168 122.613 684.902 122.347L680.568 118.012C680.302 117.746 679.871 117.746 679.605 118.012C679.339 118.278 679.339 118.71 679.605 118.975L683.457 122.828L679.605 126.681C679.339 126.947 679.339 127.378 679.605 127.644C679.871 127.91 680.302 127.91 680.568 127.644L684.902 123.31ZM571.365 123.509H574.898V122.147H571.365V123.509ZM581.964 123.509H589.03V122.147H581.964V123.509ZM596.096 123.509H603.162V122.147H596.096V123.509ZM610.228 123.509H617.294V122.147H610.228V123.509ZM624.36 123.509H631.426V122.147H624.36V123.509ZM638.492 123.509H645.558V122.147H638.492V123.509ZM652.624 123.509H659.69V122.147H652.624V123.509ZM666.756 123.509H673.821V122.147H666.756V123.509ZM680.887 123.509H684.42V122.147H680.887V123.509Z" fill="white"/>
<path d="M301.666 122.828H414.721" stroke="white" stroke-width="1.36211" stroke-dasharray="6.81 6.81"/>
<path d="M207.994 106.929L208.314 106.825L208.564 107.051L208.495 107.378L208.174 107.482L207.924 107.256L207.994 106.929Z" fill="white" stroke="white" stroke-width="2.72422"/>
<path d="M210.074 105.139L210.391 105.036L210.639 105.259L210.57 105.583L210.253 105.685L210.005 105.462L210.074 105.139Z" fill="white" stroke="white" stroke-width="2.72422"/>
<path d="M211.201 107.617L211.521 107.513L211.771 107.738L211.702 108.065L211.381 108.169L211.131 107.944L211.201 107.617Z" fill="white" stroke="white" stroke-width="2.72422"/>
<path d="M257.527 132.919L254.717 131.811L254.274 128.826L256.639 126.95L259.449 128.058L259.892 131.043L257.527 132.919Z" fill="white" stroke="white" stroke-width="2.72422"/>
<path d="M250.928 133.032L248.126 131.926L247.684 128.949L250.044 127.078L252.846 128.183L253.288 131.16L250.928 133.032Z" fill="white" stroke="white" stroke-width="2.72422"/>
<path d="M252.655 126.693L249.846 125.584L249.402 122.6L251.768 120.723L254.578 121.832L255.021 124.816L252.655 126.693Z" fill="white" stroke="white" stroke-width="2.72422"/>
<path d="M132.206 93.3803L129.397 92.2719L128.953 89.2873L131.319 87.4107L134.128 88.519L134.572 91.5036L132.206 93.3803Z" fill="white" stroke="white" stroke-width="2.72422"/>
<path d="M125.608 93.4928L122.806 92.3874L122.363 89.4104L124.723 87.5386L127.525 88.6441L127.968 91.6211L125.608 93.4928Z" fill="white" stroke="white" stroke-width="2.72422"/>
<path d="M127.335 87.1537L124.526 86.0453L124.082 83.0607L126.448 81.1841L129.257 82.2925L129.701 85.2771L127.335 87.1537Z" fill="white" stroke="white" stroke-width="2.72422"/>
<path d="M246.864 174.443L246.172 174.171L246.063 173.436L246.646 172.974L247.337 173.247L247.446 173.981L246.864 174.443Z" fill="white" stroke="white" stroke-width="2.72422"/>
<path d="M243.536 174.5L242.849 174.228L242.74 173.498L243.319 173.038L244.007 173.309L244.116 174.04L243.536 174.5Z" fill="white" stroke="white" stroke-width="2.72422"/>
<path d="M190.557 97.4413L188.241 95.4946L188.771 92.5175L191.618 91.4863L193.934 93.4329L193.405 96.4101L190.557 97.4413Z" fill="white" fill-opacity="0.69" stroke="white" stroke-width="2.72422"/>
<path d="M249.92 67.4763L247.939 65.1897L248.931 62.333L251.906 61.7626L253.886 64.0491L252.894 66.9058L249.92 67.4763Z" fill="white" fill-opacity="0.69" stroke="white" stroke-width="2.72422"/>
<path d="M292.131 79.3356L290.15 77.0491L291.142 74.1924L294.117 73.6219L296.097 75.9085L295.105 78.7651L292.131 79.3356Z" fill="white" fill-opacity="0.69" stroke="white" stroke-width="2.72422"/>
<path d="M244.405 171.295L243.713 171.022L243.604 170.288L244.187 169.826L244.878 170.098L244.987 170.833L244.405 171.295Z" fill="white" stroke="white" stroke-width="2.72422"/>
<path d="M234.991 191.553L234.299 191.28L234.19 190.546L234.773 190.083L235.464 190.356L235.573 191.091L234.991 191.553Z" fill="white" stroke="white" stroke-width="2.72422"/>
<path d="M231.663 191.625L230.976 191.353L230.867 190.623L231.446 190.163L232.134 190.434L232.243 191.165L231.663 191.625Z" fill="white" stroke="white" stroke-width="2.72422"/>
<path d="M232.534 188.412L231.842 188.139L231.733 187.405L232.316 186.943L233.007 187.216L233.116 187.95L232.534 188.412Z" fill="white" stroke="white" stroke-width="2.72422"/>
<path d="M146.61 38.6934L145.918 38.4206L145.809 37.6862L146.392 37.2241L147.083 37.4968L147.192 38.2313L146.61 38.6934Z" fill="white" stroke="white" stroke-width="2.72422"/>
<path d="M143.282 38.7653L142.595 38.494L142.486 37.7634L143.066 37.3037L143.753 37.5751L143.862 38.3057L143.282 38.7653Z" fill="white" stroke="white" stroke-width="2.72422"/>
<path d="M144.153 35.5528L143.461 35.28L143.352 34.5455L143.935 34.0834L144.626 34.3562L144.735 35.0907L144.153 35.5528Z" fill="white" stroke="white" stroke-width="2.72422"/>
<path d="M167.719 207.381L167.028 207.108L166.919 206.374L167.501 205.912L168.192 206.184L168.302 206.919L167.719 207.381Z" fill="white" stroke="white" stroke-width="2.72422"/>
<path d="M164.392 207.453L163.704 207.182L163.595 206.451L164.175 205.991L164.863 206.263L164.971 206.993L164.392 207.453Z" fill="white" stroke="white" stroke-width="2.72422"/>
<path d="M165.262 204.24L164.571 203.968L164.462 203.233L165.044 202.771L165.735 203.044L165.845 203.778L165.262 204.24Z" fill="white" stroke="white" stroke-width="2.72422"/>
<path d="M219.161 210.006L218.469 209.733L218.36 208.999L218.943 208.537L219.634 208.809L219.743 209.544L219.161 210.006Z" fill="white" stroke="white" stroke-width="2.72422"/>
<path d="M215.833 210.078L215.145 209.807L215.037 209.076L215.616 208.616L216.304 208.888L216.413 209.618L215.833 210.078Z" fill="white" stroke="white" stroke-width="2.72422"/>
<path d="M216.704 206.865L216.012 206.593L215.903 205.858L216.486 205.396L217.177 205.669L217.286 206.403L216.704 206.865Z" fill="white" stroke="white" stroke-width="2.72422"/>
<path d="M203.23 188.131L202.397 188.976L201.248 188.678L200.933 187.537L201.766 186.692L202.915 186.99L203.23 188.131Z" fill="white" stroke="white" stroke-width="2.72422"/>
<path d="M201.743 191.79L200.913 192.631L199.769 192.334L199.455 191.198L200.284 190.356L201.429 190.653L201.743 191.79Z" fill="white" stroke="white" stroke-width="2.72422"/>
<path d="M198.638 189.35L197.805 190.195L196.657 189.897L196.341 188.756L197.174 187.911L198.323 188.209L198.638 189.35Z" fill="white" stroke="white" stroke-width="2.72422"/>
<path d="M120.119 176.256L119.286 177.101L118.137 176.803L117.822 175.662L118.654 174.817L119.803 175.115L120.119 176.256Z" fill="white" stroke="white" stroke-width="2.72422"/>
<path d="M118.632 179.915L117.802 180.756L116.658 180.459L116.344 179.323L117.173 178.481L118.317 178.778L118.632 179.915Z" fill="white" stroke="white" stroke-width="2.72422"/>
<path d="M115.527 177.475L114.694 178.32L113.545 178.022L113.23 176.881L114.063 176.036L115.211 176.334L115.527 177.475Z" fill="white" stroke="white" stroke-width="2.72422"/>
<path d="M155.171 176.043L152.566 177.572L149.938 176.083L149.914 173.067L152.519 171.538L155.147 173.027L155.171 176.043Z" fill="white" stroke="white" stroke-width="2.72422"/>
<path d="M151.197 181.297L148.599 182.822L145.977 181.337L145.954 178.329L148.552 176.804L151.174 178.289L151.197 181.297Z" fill="white" stroke="white" stroke-width="2.72422"/>
<path d="M147.255 176.043L144.65 177.572L142.022 176.083L141.998 173.067L144.603 171.538L147.231 173.027L147.255 176.043Z" fill="white" stroke="white" stroke-width="2.72422"/>
<path d="M276.532 199.762L273.927 201.291L271.299 199.802L271.276 196.786L273.881 195.257L276.509 196.746L276.532 199.762Z" fill="white" stroke="white" stroke-width="2.72422"/>
<path d="M272.558 205.016L269.96 206.541L267.339 205.056L267.316 202.048L269.914 200.522L272.535 202.008L272.558 205.016Z" fill="white" stroke="white" stroke-width="2.72422"/>
<path d="M268.616 199.762L266.011 201.291L263.383 199.802L263.36 196.786L265.965 195.257L268.593 196.746L268.616 199.762Z" fill="white" stroke="white" stroke-width="2.72422"/>
<path d="M163.117 100.677L162.613 100.743L162.304 100.34L162.498 99.8724L163.002 99.8066L163.311 100.21L163.117 100.677Z" fill="white" stroke="white" stroke-width="2.72422"/>
<path d="M160.529 102.171L160.029 102.236L159.722 101.836L159.915 101.372L160.415 101.307L160.722 101.707L160.529 102.171Z" fill="white" stroke="white" stroke-width="2.72422"/>
<path d="M159.82 99.2863L159.316 99.3521L159.007 98.9491L159.202 98.4818L159.705 98.4159L160.014 98.819L159.82 99.2863Z" fill="white" stroke="white" stroke-width="2.72422"/>
<path d="M186.993 85.6172L185.611 86.4286L184.216 85.6385L184.204 84.0394L185.586 83.2279L186.981 84.018L186.993 85.6172Z" fill="white" stroke="white" stroke-width="2.72422"/>
<path d="M184.25 89.2527L182.872 90.0614L181.482 89.2739L181.47 87.6801L182.847 86.8714L184.237 87.6589L184.25 89.2527Z" fill="white" stroke="white" stroke-width="2.72422"/>
<path d="M181.526 85.6172L180.144 86.4286L178.75 85.6385L178.737 84.0394L180.119 83.2279L181.514 84.018L181.526 85.6172Z" fill="white" stroke="white" stroke-width="2.72422"/>
<path d="M210.735 51.3515L209.353 52.163L207.959 51.3729L207.946 49.7737L209.328 48.9623L210.723 49.7524L210.735 51.3515Z" fill="white" stroke="white" stroke-width="2.72422"/>
<path d="M207.992 54.987L206.614 55.7957L205.224 55.0083L205.212 53.4145L206.59 52.6058L207.979 53.3932L207.992 54.987Z" fill="white" stroke="white" stroke-width="2.72422"/>
<path d="M205.268 51.3515L203.886 52.163L202.492 51.3729L202.479 49.7737L203.862 48.9623L205.256 49.7524L205.268 51.3515Z" fill="white" stroke="white" stroke-width="2.72422"/>
<path d="M238.438 96.1562L237.056 96.9677L235.662 96.1776L235.649 94.5784L237.031 93.767L238.426 94.5571L238.438 96.1562Z" fill="white" stroke="white" stroke-width="2.72422"/>
<path d="M235.695 99.7917L234.317 100.6L232.928 99.813L232.915 98.2192L234.293 97.4105L235.683 98.1979L235.695 99.7917Z" fill="white" stroke="white" stroke-width="2.72422"/>
<path d="M232.972 96.1562L231.589 96.9677L230.195 96.1776L230.183 94.5784L231.565 93.767L232.959 94.5571L232.972 96.1562Z" fill="white" stroke="white" stroke-width="2.72422"/>
<path d="M132.907 127.773L131.525 128.585L130.13 127.795L130.118 126.196L131.5 125.384L132.895 126.174L132.907 127.773Z" fill="white" stroke="white" stroke-width="2.72422"/>
<path d="M130.164 131.409L128.786 132.218L127.396 131.43L127.384 129.836L128.762 129.028L130.151 129.815L130.164 131.409Z" fill="white" stroke="white" stroke-width="2.72422"/>
<path d="M127.44 127.773L126.058 128.585L124.664 127.795L124.651 126.196L126.033 125.384L127.428 126.174L127.44 127.773Z" fill="white" stroke="white" stroke-width="2.72422"/>
<path d="M154.014 119.875L152.632 120.686L151.238 119.896L151.225 118.297L152.608 117.486L154.002 118.276L154.014 119.875Z" fill="white" stroke="white" stroke-width="2.72422"/>
<path d="M151.271 123.51L149.894 124.319L148.504 123.532L148.491 121.938L149.869 121.129L151.259 121.917L151.271 123.51Z" fill="white" stroke="white" stroke-width="2.72422"/>
<path d="M148.548 119.875L147.166 120.686L145.771 119.896L145.759 118.297L147.141 117.486L148.535 118.276L148.548 119.875Z" fill="white" stroke="white" stroke-width="2.72422"/>
<path d="M158.398 153.059L163.276 129.964L185.736 122.636L203.318 138.405L198.44 161.5L175.98 168.828L158.398 153.059Z" stroke="white" stroke-width="2.72422"/>
<path d="M199.555 161.549L204.276 138.691L227.496 136.113L237.126 157.378L219.857 173.098L199.555 161.549Z" stroke="white" stroke-width="2.72422"/>
<line y1="-1.36211" x2="24.1044" y2="-1.36211" transform="matrix(0.373424 -0.927315 0.928169 0.373019 228.533 136.305)" stroke="white" stroke-width="2.72422"/>
<line y1="-1.36211" x2="24.1047" y2="-1.36211" transform="matrix(0.20656 -0.977993 0.978921 0.206342 186.783 121.75)" stroke="white" stroke-width="2.72422"/>
<line y1="-1.36211" x2="24.2884" y2="-1.36211" transform="matrix(0.954298 -0.300313 0.300598 0.953293 236.291 114.586)" stroke="white" stroke-width="2.72422"/>
<line y1="-1.36211" x2="24.1044" y2="-1.36211" transform="matrix(0.373424 -0.927315 0.928169 0.373019 259.611 106.836)" stroke="white" stroke-width="2.72422"/>
<line y1="-1.36211" x2="24.1047" y2="-1.36211" transform="matrix(0.951096 -0.310289 0.310584 0.950092 267.619 85.2969)" stroke="white" stroke-width="2.72422"/>
<line y1="-1.36211" x2="24.1066" y2="-1.36211" transform="matrix(-0.617115 -0.786656 0.787525 -0.616559 268.547 84.3984)" stroke="white" stroke-width="2.72422"/>
<path d="M724.384 173.491L722.962 149.911L742.661 136.873L763.779 147.413L765.201 170.993L745.502 184.031L724.384 173.491Z" stroke="white" stroke-width="2.72422"/>
<path d="M766.29 170.743L764.781 147.435L786.47 138.778L801.383 156.735L788.911 176.491L766.29 170.743Z" stroke="white" stroke-width="2.72422"/>
<line y1="-1.36211" x2="24.1146" y2="-1.36211" transform="matrix(0.113957 -0.993481 0.993564 0.113308 787.525 138.688)" stroke="white" stroke-width="2.72422"/>
<line y1="-1.36211" x2="24.1114" y2="-1.36211" transform="matrix(-0.0601806 -0.998182 0.99814 -0.0610543 743.43 135.734)" stroke="white" stroke-width="2.72422"/>
<line y1="-1.36211" x2="24.1114" y2="-1.36211" transform="matrix(0.833891 -0.551939 0.551214 0.834357 789.525 115.789)" stroke="white" stroke-width="2.72422"/>
<line y1="-1.36211" x2="24.1146" y2="-1.36211" transform="matrix(0.113957 -0.993481 0.993564 0.113308 809.65 101.992)" stroke="white" stroke-width="2.72422"/>
<line y1="-1.36211" x2="24.1114" y2="-1.36211" transform="matrix(0.833891 -0.551939 0.551214 0.834357 811.652 79.1016)" stroke="white" stroke-width="2.72422"/>
<line y1="-1.36211" x2="24.094" y2="-1.36211" transform="matrix(-0.8035 -0.595302 0.595038 -0.8037 812.316 78)" stroke="white" stroke-width="2.72422"/>
<path d="M454.002 162.738V145.1H456.476V165.531H454.215L454.002 162.738ZM444.318 158.495V158.215C444.318 157.116 444.452 156.118 444.718 155.222C444.992 154.318 445.378 153.542 445.875 152.894C446.38 152.247 446.979 151.751 447.671 151.405C448.371 151.05 449.152 150.873 450.012 150.873C450.916 150.873 451.705 151.032 452.379 151.351C453.062 151.662 453.639 152.119 454.109 152.722C454.588 153.316 454.964 154.034 455.239 154.876C455.514 155.719 455.705 156.672 455.811 157.736V158.96C455.714 160.015 455.523 160.964 455.239 161.807C454.964 162.649 454.588 163.367 454.109 163.962C453.639 164.556 453.062 165.012 452.379 165.332C451.697 165.642 450.898 165.797 449.985 165.797C449.143 165.797 448.371 165.615 447.671 165.252C446.979 164.888 446.38 164.378 445.875 163.722C445.378 163.066 444.992 162.294 444.718 161.408C444.452 160.512 444.318 159.541 444.318 158.495ZM446.793 158.215V158.495C446.793 159.213 446.864 159.887 447.005 160.516C447.156 161.146 447.387 161.7 447.697 162.179C448.008 162.658 448.402 163.035 448.881 163.31C449.36 163.576 449.932 163.709 450.597 163.709C451.413 163.709 452.082 163.536 452.606 163.19C453.138 162.844 453.563 162.388 453.883 161.82C454.202 161.252 454.45 160.636 454.627 159.971V156.765C454.521 156.278 454.366 155.808 454.162 155.355C453.967 154.894 453.71 154.486 453.39 154.132C453.08 153.768 452.694 153.48 452.233 153.267C451.781 153.054 451.244 152.948 450.624 152.948C449.95 152.948 449.369 153.09 448.881 153.373C448.402 153.648 448.008 154.03 447.697 154.517C447.387 154.996 447.156 155.555 447.005 156.193C446.864 156.823 446.793 157.497 446.793 158.215ZM468.794 163.07V155.661C468.794 155.094 468.679 154.602 468.448 154.185C468.226 153.759 467.889 153.431 467.437 153.2C466.985 152.97 466.426 152.855 465.761 152.855C465.14 152.855 464.595 152.961 464.125 153.174C463.664 153.387 463.3 153.666 463.034 154.012C462.777 154.358 462.648 154.73 462.648 155.129H460.188C460.188 154.615 460.321 154.105 460.587 153.599C460.853 153.094 461.234 152.637 461.731 152.229C462.236 151.813 462.839 151.484 463.54 151.245C464.249 150.997 465.038 150.873 465.907 150.873C466.954 150.873 467.876 151.05 468.674 151.405C469.481 151.759 470.111 152.296 470.563 153.014C471.024 153.724 471.255 154.615 471.255 155.688V162.392C471.255 162.871 471.295 163.381 471.374 163.922C471.463 164.463 471.592 164.928 471.76 165.318V165.531H469.193C469.069 165.247 468.971 164.871 468.9 164.401C468.829 163.922 468.794 163.478 468.794 163.07ZM469.22 156.805L469.246 158.534H466.759C466.058 158.534 465.433 158.592 464.883 158.707C464.333 158.814 463.872 158.978 463.5 159.2C463.127 159.421 462.844 159.701 462.648 160.038C462.453 160.366 462.356 160.751 462.356 161.195C462.356 161.647 462.458 162.059 462.662 162.432C462.866 162.804 463.172 163.101 463.58 163.323C463.996 163.536 464.506 163.642 465.109 163.642C465.863 163.642 466.528 163.483 467.105 163.164C467.681 162.844 468.138 162.454 468.475 161.993C468.821 161.532 469.007 161.084 469.033 160.649L470.084 161.833C470.022 162.206 469.854 162.618 469.579 163.07C469.304 163.523 468.936 163.957 468.475 164.374C468.022 164.782 467.481 165.123 466.852 165.398C466.231 165.664 465.531 165.797 464.75 165.797C463.775 165.797 462.919 165.607 462.183 165.225C461.456 164.844 460.888 164.334 460.48 163.696C460.081 163.048 459.882 162.326 459.882 161.527C459.882 160.756 460.032 160.077 460.334 159.492C460.635 158.898 461.07 158.406 461.638 158.016C462.205 157.617 462.888 157.315 463.686 157.111C464.484 156.907 465.375 156.805 466.36 156.805H469.22ZM481.151 151.139V153.028H473.37V151.139H481.151ZM476.004 147.64H478.464V161.966C478.464 162.454 478.54 162.822 478.691 163.07C478.841 163.319 479.036 163.483 479.276 163.563C479.515 163.642 479.772 163.682 480.047 163.682C480.251 163.682 480.464 163.665 480.686 163.629C480.916 163.585 481.089 163.549 481.205 163.523L481.218 165.531C481.023 165.593 480.766 165.651 480.446 165.704C480.136 165.766 479.759 165.797 479.316 165.797C478.713 165.797 478.158 165.678 477.653 165.438C477.147 165.199 476.744 164.8 476.442 164.241C476.15 163.673 476.004 162.911 476.004 161.953V147.64ZM492.524 163.07V155.661C492.524 155.094 492.409 154.602 492.179 154.185C491.957 153.759 491.62 153.431 491.168 153.2C490.715 152.97 490.157 152.855 489.492 152.855C488.871 152.855 488.325 152.961 487.855 153.174C487.394 153.387 487.031 153.666 486.765 154.012C486.508 154.358 486.379 154.73 486.379 155.129H483.918C483.918 154.615 484.051 154.105 484.317 153.599C484.583 153.094 484.965 152.637 485.461 152.229C485.967 151.813 486.57 151.484 487.27 151.245C487.98 150.997 488.769 150.873 489.638 150.873C490.684 150.873 491.607 151.05 492.405 151.405C493.212 151.759 493.841 152.296 494.294 153.014C494.755 153.724 494.985 154.615 494.985 155.688V162.392C494.985 162.871 495.025 163.381 495.105 163.922C495.194 164.463 495.322 164.928 495.491 165.318V165.531H492.923C492.799 165.247 492.702 164.871 492.631 164.401C492.56 163.922 492.524 163.478 492.524 163.07ZM492.95 156.805L492.977 158.534H490.489C489.789 158.534 489.164 158.592 488.614 158.707C488.064 158.814 487.603 158.978 487.23 159.2C486.858 159.421 486.574 159.701 486.379 160.038C486.184 160.366 486.086 160.751 486.086 161.195C486.086 161.647 486.188 162.059 486.392 162.432C486.596 162.804 486.902 163.101 487.31 163.323C487.727 163.536 488.237 163.642 488.84 163.642C489.594 163.642 490.259 163.483 490.835 163.164C491.412 162.844 491.868 162.454 492.205 161.993C492.551 161.532 492.737 161.084 492.764 160.649L493.815 161.833C493.753 162.206 493.584 162.618 493.309 163.07C493.034 163.523 492.666 163.957 492.205 164.374C491.753 164.782 491.212 165.123 490.582 165.398C489.962 165.664 489.261 165.797 488.481 165.797C487.505 165.797 486.649 165.607 485.913 165.225C485.186 164.844 484.619 164.334 484.211 163.696C483.812 163.048 483.612 162.326 483.612 161.527C483.612 160.756 483.763 160.077 484.064 159.492C484.366 158.898 484.8 158.406 485.368 158.016C485.936 157.617 486.618 157.315 487.417 157.111C488.215 156.907 489.106 156.805 490.09 156.805H492.95ZM501.304 153.999V165.531H498.83V151.139H501.171L501.304 153.999ZM500.798 157.79L499.654 157.75C499.663 156.765 499.792 155.856 500.04 155.023C500.288 154.18 500.656 153.449 501.144 152.828C501.632 152.207 502.239 151.728 502.966 151.391C503.694 151.046 504.536 150.873 505.494 150.873C506.168 150.873 506.788 150.97 507.356 151.165C507.924 151.351 508.416 151.649 508.833 152.056C509.249 152.464 509.573 152.988 509.804 153.626C510.034 154.265 510.149 155.036 510.149 155.941V165.531H507.689V156.06C507.689 155.307 507.56 154.704 507.303 154.251C507.055 153.799 506.7 153.471 506.239 153.267C505.778 153.054 505.237 152.948 504.616 152.948C503.889 152.948 503.281 153.076 502.793 153.333C502.306 153.591 501.916 153.945 501.623 154.398C501.33 154.85 501.117 155.369 500.984 155.954C500.86 156.53 500.798 157.142 500.798 157.79ZM510.123 156.433L508.473 156.938C508.482 156.149 508.611 155.391 508.859 154.664C509.116 153.936 509.484 153.289 509.963 152.722C510.451 152.154 511.049 151.706 511.759 151.378C512.468 151.041 513.28 150.873 514.193 150.873C514.965 150.873 515.648 150.975 516.242 151.179C516.845 151.383 517.35 151.697 517.758 152.123C518.175 152.54 518.49 153.076 518.702 153.733C518.915 154.389 519.022 155.169 519.022 156.074V165.531H516.548V156.047C516.548 155.24 516.419 154.615 516.162 154.171C515.914 153.719 515.559 153.404 515.098 153.227C514.645 153.041 514.104 152.948 513.475 152.948C512.934 152.948 512.455 153.041 512.038 153.227C511.621 153.413 511.271 153.67 510.987 153.999C510.704 154.318 510.486 154.686 510.336 155.103C510.194 155.519 510.123 155.963 510.123 156.433ZM522.094 158.495V158.189C522.094 157.151 522.245 156.189 522.547 155.302C522.848 154.406 523.283 153.631 523.85 152.974C524.418 152.309 525.105 151.795 525.912 151.431C526.719 151.059 527.624 150.873 528.626 150.873C529.637 150.873 530.546 151.059 531.353 151.431C532.168 151.795 532.86 152.309 533.428 152.974C534.004 153.631 534.443 154.406 534.745 155.302C535.046 156.189 535.197 157.151 535.197 158.189V158.495C535.197 159.532 535.046 160.494 534.745 161.381C534.443 162.268 534.004 163.044 533.428 163.709C532.86 164.365 532.173 164.879 531.366 165.252C530.568 165.615 529.663 165.797 528.652 165.797C527.641 165.797 526.732 165.615 525.925 165.252C525.118 164.879 524.427 164.365 523.85 163.709C523.283 163.044 522.848 162.268 522.547 161.381C522.245 160.494 522.094 159.532 522.094 158.495ZM524.555 158.189V158.495C524.555 159.213 524.64 159.891 524.808 160.53C524.977 161.159 525.229 161.718 525.566 162.206C525.912 162.694 526.342 163.079 526.857 163.363C527.371 163.638 527.969 163.775 528.652 163.775C529.326 163.775 529.916 163.638 530.421 163.363C530.936 163.079 531.361 162.694 531.698 162.206C532.035 161.718 532.288 161.159 532.457 160.53C532.634 159.891 532.723 159.213 532.723 158.495V158.189C532.723 157.479 532.634 156.81 532.457 156.18C532.288 155.542 532.031 154.978 531.685 154.491C531.348 153.994 530.922 153.604 530.408 153.32C529.903 153.036 529.309 152.894 528.626 152.894C527.952 152.894 527.358 153.036 526.843 153.32C526.338 153.604 525.912 153.994 525.566 154.491C525.229 154.978 524.977 155.542 524.808 156.18C524.64 156.81 524.555 157.479 524.555 158.189ZM540.957 145.1V165.531H538.482V145.1H540.957Z" fill="white"/>
<path d="M347.123 252.699V269H344.452V258.471C344.452 258.05 344.474 257.595 344.519 257.107L339.593 266.362C339.36 266.805 339.003 267.027 338.522 267.027H338.093C337.612 267.027 337.255 266.805 337.022 266.362L332.04 257.073C332.062 257.321 332.081 257.565 332.096 257.806C332.111 258.046 332.118 258.268 332.118 258.471V269H329.447V252.699H331.735C331.87 252.699 331.987 252.702 332.085 252.71C332.182 252.717 332.269 252.736 332.344 252.766C332.427 252.796 332.498 252.845 332.558 252.913C332.626 252.98 332.69 253.071 332.75 253.183L337.631 262.236C337.759 262.476 337.875 262.724 337.981 262.98C338.093 263.236 338.202 263.499 338.308 263.769C338.413 263.491 338.522 263.224 338.634 262.969C338.747 262.706 338.867 262.454 338.995 262.213L343.809 253.183C343.869 253.071 343.933 252.98 344.001 252.913C344.068 252.845 344.14 252.796 344.215 252.766C344.297 252.736 344.388 252.717 344.485 252.71C344.583 252.702 344.7 252.699 344.835 252.699H347.123ZM355.087 257.253C355.943 257.253 356.721 257.392 357.42 257.67C358.127 257.948 358.728 258.343 359.224 258.854C359.727 259.365 360.115 259.989 360.385 260.725C360.656 261.462 360.791 262.285 360.791 263.194C360.791 264.111 360.656 264.938 360.385 265.674C360.115 266.411 359.727 267.038 359.224 267.557C358.728 268.076 358.127 268.474 357.42 268.752C356.721 269.03 355.943 269.169 355.087 269.169C354.222 269.169 353.437 269.03 352.73 268.752C352.024 268.474 351.419 268.076 350.915 267.557C350.419 267.038 350.032 266.411 349.754 265.674C349.484 264.938 349.348 264.111 349.348 263.194C349.348 262.285 349.484 261.462 349.754 260.725C350.032 259.989 350.419 259.365 350.915 258.854C351.419 258.343 352.024 257.948 352.73 257.67C353.437 257.392 354.222 257.253 355.087 257.253ZM355.087 267.027C356.049 267.027 356.759 266.704 357.217 266.058C357.683 265.411 357.916 264.464 357.916 263.217C357.916 261.969 357.683 261.018 357.217 260.365C356.759 259.711 356.049 259.384 355.087 259.384C354.11 259.384 353.384 259.714 352.911 260.376C352.445 261.03 352.212 261.977 352.212 263.217C352.212 264.457 352.445 265.404 352.911 266.058C353.384 266.704 354.11 267.027 355.087 267.027ZM365.734 252.248V269H362.949V252.248H365.734ZM375.96 261.886C375.96 261.526 375.907 261.188 375.802 260.872C375.704 260.549 375.554 260.267 375.351 260.026C375.148 259.786 374.889 259.598 374.573 259.463C374.265 259.32 373.904 259.249 373.491 259.249C372.687 259.249 372.052 259.478 371.586 259.936C371.127 260.395 370.834 261.045 370.706 261.886H375.96ZM370.65 263.566C370.695 264.16 370.8 264.675 370.966 265.111C371.131 265.539 371.349 265.896 371.619 266.182C371.89 266.46 372.209 266.67 372.578 266.813C372.953 266.948 373.367 267.016 373.818 267.016C374.269 267.016 374.656 266.963 374.979 266.858C375.31 266.753 375.595 266.636 375.836 266.509C376.084 266.381 376.298 266.264 376.478 266.159C376.666 266.054 376.846 266.001 377.019 266.001C377.252 266.001 377.425 266.088 377.538 266.261L378.338 267.275C378.03 267.636 377.684 267.94 377.301 268.188C376.918 268.429 376.516 268.624 376.095 268.775C375.682 268.917 375.257 269.019 374.821 269.079C374.393 269.139 373.976 269.169 373.57 269.169C372.766 269.169 372.018 269.038 371.326 268.775C370.635 268.504 370.034 268.109 369.523 267.591C369.011 267.065 368.609 266.418 368.316 265.652C368.023 264.878 367.877 263.983 367.877 262.969C367.877 262.18 368.004 261.439 368.26 260.748C368.515 260.049 368.88 259.444 369.353 258.933C369.834 258.414 370.417 258.005 371.101 257.704C371.792 257.403 372.57 257.253 373.434 257.253C374.163 257.253 374.836 257.37 375.452 257.603C376.069 257.836 376.598 258.178 377.042 258.628C377.485 259.072 377.831 259.621 378.079 260.274C378.335 260.921 378.462 261.661 378.462 262.495C378.462 262.916 378.417 263.202 378.327 263.352C378.237 263.495 378.064 263.566 377.808 263.566H370.65ZM388.838 259.88C388.755 259.985 388.673 260.068 388.59 260.128C388.515 260.188 388.402 260.218 388.252 260.218C388.109 260.218 387.97 260.177 387.835 260.094C387.699 260.004 387.538 259.906 387.35 259.801C387.162 259.688 386.936 259.59 386.673 259.508C386.418 259.418 386.098 259.373 385.715 259.373C385.227 259.373 384.798 259.463 384.43 259.643C384.062 259.816 383.754 260.068 383.506 260.398C383.265 260.729 383.085 261.131 382.964 261.605C382.844 262.071 382.784 262.6 382.784 263.194C382.784 263.81 382.848 264.359 382.976 264.84C383.111 265.321 383.303 265.727 383.551 266.058C383.799 266.381 384.099 266.629 384.453 266.802C384.806 266.967 385.204 267.05 385.648 267.05C386.091 267.05 386.448 266.997 386.719 266.892C386.997 266.779 387.23 266.659 387.417 266.531C387.605 266.396 387.767 266.276 387.902 266.17C388.045 266.058 388.203 266.001 388.376 266.001C388.601 266.001 388.77 266.088 388.883 266.261L389.683 267.275C389.375 267.636 389.041 267.94 388.68 268.188C388.319 268.429 387.944 268.624 387.553 268.775C387.169 268.917 386.771 269.019 386.358 269.079C385.952 269.139 385.546 269.169 385.14 269.169C384.426 269.169 383.754 269.038 383.122 268.775C382.491 268.504 381.939 268.113 381.465 267.602C380.992 267.091 380.616 266.467 380.338 265.731C380.067 264.987 379.932 264.141 379.932 263.194C379.932 262.345 380.052 261.56 380.293 260.838C380.541 260.109 380.901 259.481 381.375 258.955C381.848 258.422 382.435 258.005 383.134 257.704C383.833 257.403 384.637 257.253 385.546 257.253C386.41 257.253 387.166 257.392 387.812 257.67C388.466 257.948 389.052 258.347 389.571 258.865L388.838 259.88ZM401.395 257.433V269H399.692C399.324 269 399.091 268.831 398.994 268.493L398.802 267.568C398.328 268.049 397.806 268.44 397.235 268.741C396.664 269.034 395.991 269.18 395.217 269.18C394.586 269.18 394.026 269.075 393.537 268.865C393.056 268.647 392.65 268.342 392.32 267.952C391.989 267.561 391.737 267.099 391.564 266.565C391.399 266.024 391.316 265.43 391.316 264.784V257.433H394.101V264.784C394.101 265.49 394.262 266.039 394.586 266.43C394.916 266.813 395.409 267.005 396.062 267.005C396.543 267.005 396.994 266.899 397.415 266.689C397.836 266.471 398.234 266.174 398.61 265.798V257.433H401.395ZM406.974 252.248V269H404.189V252.248H406.974ZM415.859 264.062C415.054 264.1 414.378 264.171 413.829 264.276C413.281 264.374 412.841 264.502 412.51 264.66C412.18 264.818 411.943 265.002 411.8 265.212C411.657 265.423 411.586 265.652 411.586 265.9C411.586 266.388 411.729 266.738 412.014 266.948C412.307 267.159 412.687 267.264 413.153 267.264C413.724 267.264 414.216 267.162 414.63 266.96C415.051 266.749 415.46 266.433 415.859 266.013V264.062ZM409.478 259.046C410.808 257.828 412.409 257.219 414.28 257.219C414.957 257.219 415.562 257.332 416.095 257.557C416.629 257.775 417.08 258.084 417.448 258.482C417.816 258.873 418.094 259.342 418.282 259.891C418.478 260.44 418.575 261.041 418.575 261.695V269H417.313C417.05 269 416.847 268.962 416.704 268.887C416.561 268.805 416.449 268.643 416.366 268.403L416.118 267.568C415.825 267.831 415.539 268.064 415.261 268.267C414.983 268.463 414.694 268.628 414.393 268.763C414.092 268.899 413.769 269 413.423 269.068C413.085 269.143 412.709 269.18 412.296 269.18C411.808 269.18 411.357 269.116 410.943 268.989C410.53 268.853 410.173 268.654 409.872 268.391C409.572 268.128 409.339 267.801 409.173 267.41C409.008 267.02 408.925 266.565 408.925 266.046C408.925 265.753 408.974 265.464 409.072 265.178C409.17 264.885 409.327 264.607 409.545 264.344C409.771 264.081 410.06 263.833 410.413 263.6C410.767 263.367 411.199 263.164 411.71 262.991C412.228 262.818 412.83 262.679 413.514 262.574C414.198 262.461 414.979 262.394 415.859 262.371V261.695C415.859 260.921 415.693 260.35 415.362 259.981C415.032 259.605 414.555 259.418 413.931 259.418C413.48 259.418 413.104 259.47 412.803 259.575C412.51 259.681 412.251 259.801 412.026 259.936C411.8 260.064 411.593 260.18 411.406 260.286C411.225 260.391 411.022 260.443 410.797 260.443C410.601 260.443 410.436 260.395 410.301 260.297C410.165 260.192 410.056 260.071 409.974 259.936L409.478 259.046ZM423.825 259.44C424.185 258.749 424.614 258.208 425.11 257.817C425.606 257.418 426.192 257.219 426.868 257.219C427.402 257.219 427.83 257.336 428.154 257.569L427.973 259.654C427.936 259.79 427.879 259.887 427.804 259.947C427.736 260 427.643 260.026 427.522 260.026C427.41 260.026 427.24 260.008 427.015 259.97C426.797 259.932 426.583 259.914 426.372 259.914C426.064 259.914 425.79 259.959 425.549 260.049C425.309 260.139 425.091 260.271 424.896 260.443C424.708 260.609 424.539 260.812 424.388 261.052C424.245 261.293 424.11 261.567 423.982 261.875V269H421.198V257.433H422.833C423.118 257.433 423.317 257.486 423.43 257.591C423.543 257.689 423.618 257.869 423.655 258.132L423.825 259.44ZM440.345 260.894C440.901 260.894 441.386 260.827 441.8 260.691C442.213 260.549 442.555 260.35 442.825 260.094C443.103 259.831 443.31 259.515 443.445 259.147C443.581 258.771 443.648 258.354 443.648 257.896C443.648 257.46 443.581 257.065 443.445 256.712C443.31 256.359 443.107 256.058 442.837 255.81C442.566 255.562 442.224 255.374 441.811 255.246C441.397 255.111 440.909 255.044 440.345 255.044H438.079V260.894H440.345ZM440.345 252.699C441.435 252.699 442.378 252.826 443.175 253.082C443.972 253.337 444.629 253.694 445.148 254.153C445.666 254.611 446.05 255.16 446.298 255.799C446.553 256.438 446.681 257.137 446.681 257.896C446.681 258.685 446.549 259.41 446.286 260.071C446.023 260.725 445.629 261.289 445.103 261.762C444.577 262.236 443.915 262.604 443.119 262.867C442.329 263.13 441.405 263.262 440.345 263.262H438.079V269H435.047V252.699H440.345ZM451.017 259.44C451.378 258.749 451.806 258.208 452.302 257.817C452.798 257.418 453.385 257.219 454.061 257.219C454.595 257.219 455.023 257.336 455.346 257.569L455.166 259.654C455.128 259.79 455.072 259.887 454.997 259.947C454.929 260 454.835 260.026 454.715 260.026C454.602 260.026 454.433 260.008 454.208 259.97C453.99 259.932 453.776 259.914 453.565 259.914C453.257 259.914 452.983 259.959 452.742 260.049C452.502 260.139 452.284 260.271 452.088 260.443C451.9 260.609 451.731 260.812 451.581 261.052C451.438 261.293 451.303 261.567 451.175 261.875V269H448.391V257.433H450.025C450.311 257.433 450.51 257.486 450.623 257.591C450.735 257.689 450.811 257.869 450.848 258.132L451.017 259.44ZM461.589 257.253C462.446 257.253 463.224 257.392 463.923 257.67C464.63 257.948 465.231 258.343 465.727 258.854C466.23 259.365 466.617 259.989 466.888 260.725C467.159 261.462 467.294 262.285 467.294 263.194C467.294 264.111 467.159 264.938 466.888 265.674C466.617 266.411 466.23 267.038 465.727 267.557C465.231 268.076 464.63 268.474 463.923 268.752C463.224 269.03 462.446 269.169 461.589 269.169C460.725 269.169 459.94 269.03 459.233 268.752C458.527 268.474 457.922 268.076 457.418 267.557C456.922 267.038 456.535 266.411 456.257 265.674C455.987 264.938 455.851 264.111 455.851 263.194C455.851 262.285 455.987 261.462 456.257 260.725C456.535 259.989 456.922 259.365 457.418 258.854C457.922 258.343 458.527 257.948 459.233 257.67C459.94 257.392 460.725 257.253 461.589 257.253ZM461.589 267.027C462.551 267.027 463.262 266.704 463.72 266.058C464.186 265.411 464.419 264.464 464.419 263.217C464.419 261.969 464.186 261.018 463.72 260.365C463.262 259.711 462.551 259.384 461.589 259.384C460.612 259.384 459.887 259.714 459.414 260.376C458.948 261.03 458.715 261.977 458.715 263.217C458.715 264.457 458.948 265.404 459.414 266.058C459.887 266.704 460.612 267.027 461.589 267.027ZM477.704 259.88C477.621 259.985 477.539 260.068 477.456 260.128C477.381 260.188 477.268 260.218 477.118 260.218C476.975 260.218 476.836 260.177 476.701 260.094C476.565 260.004 476.404 259.906 476.216 259.801C476.028 259.688 475.803 259.59 475.54 259.508C475.284 259.418 474.965 259.373 474.581 259.373C474.093 259.373 473.664 259.463 473.296 259.643C472.928 259.816 472.62 260.068 472.372 260.398C472.131 260.729 471.951 261.131 471.831 261.605C471.71 262.071 471.65 262.6 471.65 263.194C471.65 263.81 471.714 264.359 471.842 264.84C471.977 265.321 472.169 265.727 472.417 266.058C472.665 266.381 472.966 266.629 473.319 266.802C473.672 266.967 474.07 267.05 474.514 267.05C474.957 267.05 475.314 266.997 475.585 266.892C475.863 266.779 476.096 266.659 476.284 266.531C476.472 266.396 476.633 266.276 476.768 266.17C476.911 266.058 477.069 266.001 477.242 266.001C477.467 266.001 477.636 266.088 477.749 266.261L478.55 267.275C478.241 267.636 477.907 267.94 477.546 268.188C477.186 268.429 476.81 268.624 476.419 268.775C476.036 268.917 475.637 269.019 475.224 269.079C474.818 269.139 474.412 269.169 474.006 269.169C473.292 269.169 472.62 269.038 471.988 268.775C471.357 268.504 470.805 268.113 470.331 267.602C469.858 267.091 469.482 266.467 469.204 265.731C468.933 264.987 468.798 264.141 468.798 263.194C468.798 262.345 468.918 261.56 469.159 260.838C469.407 260.109 469.768 259.481 470.241 258.955C470.715 258.422 471.301 258.005 472 257.704C472.699 257.403 473.503 257.253 474.412 257.253C475.277 257.253 476.032 257.392 476.678 257.67C477.332 257.948 477.918 258.347 478.437 258.865L477.704 259.88ZM487.549 261.886C487.549 261.526 487.496 261.188 487.391 260.872C487.293 260.549 487.143 260.267 486.94 260.026C486.737 259.786 486.478 259.598 486.162 259.463C485.854 259.32 485.493 259.249 485.08 259.249C484.276 259.249 483.641 259.478 483.175 259.936C482.716 260.395 482.423 261.045 482.295 261.886H487.549ZM482.239 263.566C482.284 264.16 482.389 264.675 482.555 265.111C482.72 265.539 482.938 265.896 483.209 266.182C483.479 266.46 483.798 266.67 484.167 266.813C484.543 266.948 484.956 267.016 485.407 267.016C485.858 267.016 486.245 266.963 486.568 266.858C486.899 266.753 487.184 266.636 487.425 266.509C487.673 266.381 487.887 266.264 488.067 266.159C488.255 266.054 488.436 266.001 488.608 266.001C488.841 266.001 489.014 266.088 489.127 266.261L489.927 267.275C489.619 267.636 489.274 267.94 488.89 268.188C488.507 268.429 488.105 268.624 487.684 268.775C487.271 268.917 486.846 269.019 486.41 269.079C485.982 269.139 485.565 269.169 485.159 269.169C484.355 269.169 483.607 269.038 482.915 268.775C482.224 268.504 481.623 268.109 481.112 267.591C480.601 267.065 480.199 266.418 479.905 265.652C479.612 264.878 479.466 263.983 479.466 262.969C479.466 262.18 479.594 261.439 479.849 260.748C480.105 260.049 480.469 259.444 480.943 258.933C481.424 258.414 482.006 258.005 482.69 257.704C483.381 257.403 484.159 257.253 485.024 257.253C485.753 257.253 486.425 257.37 487.041 257.603C487.658 257.836 488.188 258.178 488.631 258.628C489.074 259.072 489.42 259.621 489.668 260.274C489.924 260.921 490.051 261.661 490.051 262.495C490.051 262.916 490.006 263.202 489.916 263.352C489.826 263.495 489.653 263.566 489.398 263.566H482.239ZM499.198 259.688C499.123 259.808 499.044 259.895 498.962 259.947C498.879 259.993 498.774 260.015 498.646 260.015C498.511 260.015 498.364 259.978 498.206 259.902C498.056 259.827 497.879 259.745 497.676 259.654C497.473 259.557 497.24 259.47 496.977 259.395C496.722 259.32 496.417 259.282 496.064 259.282C495.516 259.282 495.083 259.399 494.768 259.632C494.46 259.865 494.306 260.169 494.306 260.545C494.306 260.793 494.385 261.003 494.542 261.176C494.708 261.342 494.922 261.488 495.185 261.616C495.455 261.744 495.76 261.86 496.098 261.965C496.436 262.063 496.778 262.172 497.124 262.292C497.477 262.413 497.823 262.552 498.161 262.709C498.499 262.86 498.8 263.055 499.063 263.296C499.334 263.529 499.548 263.81 499.706 264.141C499.871 264.472 499.954 264.87 499.954 265.336C499.954 265.892 499.852 266.407 499.649 266.881C499.454 267.347 499.161 267.752 498.77 268.098C498.379 268.436 497.894 268.703 497.316 268.899C496.744 269.086 496.083 269.18 495.331 269.18C494.933 269.18 494.542 269.143 494.159 269.068C493.783 269 493.419 268.902 493.066 268.775C492.72 268.647 492.397 268.496 492.096 268.324C491.803 268.151 491.544 267.963 491.318 267.76L491.961 266.7C492.043 266.572 492.141 266.475 492.254 266.407C492.367 266.339 492.509 266.306 492.682 266.306C492.855 266.306 493.017 266.355 493.167 266.452C493.325 266.55 493.505 266.655 493.708 266.768C493.911 266.881 494.148 266.986 494.418 267.084C494.696 267.181 495.046 267.23 495.467 267.23C495.797 267.23 496.079 267.192 496.312 267.117C496.553 267.035 496.748 266.929 496.898 266.802C497.056 266.674 497.169 266.527 497.237 266.362C497.312 266.189 497.349 266.013 497.349 265.832C497.349 265.562 497.267 265.34 497.101 265.167C496.944 264.994 496.729 264.844 496.459 264.716C496.196 264.588 495.891 264.476 495.546 264.378C495.207 264.273 494.858 264.16 494.497 264.04C494.144 263.919 493.795 263.78 493.449 263.623C493.111 263.457 492.806 263.251 492.536 263.003C492.273 262.755 492.058 262.45 491.893 262.089C491.735 261.729 491.656 261.293 491.656 260.782C491.656 260.308 491.75 259.857 491.938 259.429C492.126 259 492.4 258.628 492.761 258.313C493.129 257.99 493.584 257.734 494.125 257.546C494.674 257.351 495.305 257.253 496.019 257.253C496.816 257.253 497.541 257.385 498.195 257.648C498.849 257.911 499.394 258.256 499.83 258.685L499.198 259.688ZM509.107 259.688C509.031 259.808 508.952 259.895 508.87 259.947C508.787 259.993 508.682 260.015 508.554 260.015C508.419 260.015 508.272 259.978 508.114 259.902C507.964 259.827 507.788 259.745 507.585 259.654C507.382 259.557 507.149 259.47 506.886 259.395C506.63 259.32 506.326 259.282 505.973 259.282C505.424 259.282 504.992 259.399 504.676 259.632C504.368 259.865 504.214 260.169 504.214 260.545C504.214 260.793 504.293 261.003 504.451 261.176C504.616 261.342 504.83 261.488 505.093 261.616C505.364 261.744 505.668 261.86 506.006 261.965C506.345 262.063 506.686 262.172 507.032 262.292C507.385 262.413 507.731 262.552 508.069 262.709C508.408 262.86 508.708 263.055 508.971 263.296C509.242 263.529 509.456 263.81 509.614 264.141C509.779 264.472 509.862 264.87 509.862 265.336C509.862 265.892 509.76 266.407 509.557 266.881C509.362 267.347 509.069 267.752 508.678 268.098C508.287 268.436 507.803 268.703 507.224 268.899C506.653 269.086 505.991 269.18 505.24 269.18C504.841 269.18 504.451 269.143 504.067 269.068C503.692 269 503.327 268.902 502.974 268.775C502.628 268.647 502.305 268.496 502.004 268.324C501.711 268.151 501.452 267.963 501.226 267.76L501.869 266.7C501.952 266.572 502.049 266.475 502.162 266.407C502.275 266.339 502.418 266.306 502.59 266.306C502.763 266.306 502.925 266.355 503.075 266.452C503.233 266.55 503.413 266.655 503.616 266.768C503.819 266.881 504.056 266.986 504.327 267.084C504.605 267.181 504.954 267.23 505.375 267.23C505.706 267.23 505.988 267.192 506.221 267.117C506.461 267.035 506.656 266.929 506.807 266.802C506.965 266.674 507.077 266.527 507.145 266.362C507.22 266.189 507.258 266.013 507.258 265.832C507.258 265.562 507.175 265.34 507.01 265.167C506.852 264.994 506.638 264.844 506.367 264.716C506.104 264.588 505.8 264.476 505.454 264.378C505.116 264.273 504.766 264.16 504.406 264.04C504.052 263.919 503.703 263.78 503.357 263.623C503.019 263.457 502.714 263.251 502.444 263.003C502.181 262.755 501.967 262.45 501.801 262.089C501.644 261.729 501.565 261.293 501.565 260.782C501.565 260.308 501.659 259.857 501.846 259.429C502.034 259 502.309 258.628 502.669 258.313C503.038 257.99 503.492 257.734 504.033 257.546C504.582 257.351 505.213 257.253 505.927 257.253C506.724 257.253 507.449 257.385 508.103 257.648C508.757 257.911 509.302 258.256 509.738 258.685L509.107 259.688ZM514.844 257.433V269H512.048V257.433H514.844ZM515.227 254.063C515.227 254.303 515.178 254.529 515.08 254.739C514.983 254.95 514.851 255.134 514.686 255.292C514.528 255.449 514.34 255.577 514.122 255.675C513.904 255.765 513.671 255.81 513.423 255.81C513.183 255.81 512.953 255.765 512.736 255.675C512.525 255.577 512.341 255.449 512.183 255.292C512.025 255.134 511.898 254.95 511.8 254.739C511.71 254.529 511.665 254.303 511.665 254.063C511.665 253.815 511.71 253.582 511.8 253.364C511.898 253.146 512.025 252.958 512.183 252.8C512.341 252.642 512.525 252.518 512.736 252.428C512.953 252.33 513.183 252.282 513.423 252.282C513.671 252.282 513.904 252.33 514.122 252.428C514.34 252.518 514.528 252.642 514.686 252.8C514.851 252.958 514.983 253.146 515.08 253.364C515.178 253.582 515.227 253.815 515.227 254.063ZM520.287 258.854C520.52 258.621 520.764 258.407 521.019 258.211C521.282 258.008 521.557 257.839 521.842 257.704C522.135 257.561 522.447 257.452 522.778 257.377C523.109 257.294 523.469 257.253 523.86 257.253C524.492 257.253 525.051 257.362 525.54 257.58C526.029 257.79 526.434 258.091 526.758 258.482C527.088 258.865 527.336 259.327 527.502 259.869C527.674 260.402 527.761 260.992 527.761 261.638V269H524.976V261.638C524.976 260.932 524.815 260.387 524.492 260.004C524.168 259.613 523.676 259.418 523.015 259.418C522.534 259.418 522.083 259.527 521.662 259.745C521.241 259.962 520.843 260.259 520.467 260.635V269H517.682V257.433H519.385C519.745 257.433 519.982 257.603 520.095 257.941L520.287 258.854ZM534.637 262.935C534.982 262.935 535.283 262.89 535.538 262.8C535.794 262.702 536.004 262.57 536.17 262.405C536.343 262.24 536.47 262.041 536.553 261.808C536.643 261.575 536.688 261.319 536.688 261.041C536.688 260.47 536.515 260.019 536.17 259.688C535.832 259.35 535.32 259.181 534.637 259.181C533.953 259.181 533.438 259.35 533.092 259.688C532.754 260.019 532.585 260.47 532.585 261.041C532.585 261.312 532.626 261.563 532.709 261.796C532.799 262.029 532.927 262.232 533.092 262.405C533.265 262.57 533.479 262.702 533.735 262.8C533.998 262.89 534.298 262.935 534.637 262.935ZM537.782 269.519C537.782 269.293 537.714 269.109 537.579 268.966C537.444 268.823 537.26 268.714 537.027 268.639C536.794 268.557 536.519 268.496 536.204 268.459C535.895 268.421 535.565 268.395 535.212 268.38C534.866 268.357 534.505 268.339 534.129 268.324C533.761 268.309 533.4 268.279 533.047 268.233C532.739 268.406 532.487 268.609 532.292 268.842C532.104 269.075 532.01 269.346 532.01 269.654C532.01 269.857 532.059 270.045 532.156 270.218C532.262 270.398 532.423 270.552 532.641 270.68C532.867 270.808 533.156 270.905 533.509 270.973C533.862 271.048 534.295 271.086 534.806 271.086C535.324 271.086 535.771 271.044 536.147 270.962C536.523 270.886 536.831 270.777 537.072 270.635C537.32 270.499 537.5 270.334 537.613 270.139C537.725 269.951 537.782 269.744 537.782 269.519ZM540.555 257.828V258.865C540.555 259.196 540.356 259.399 539.958 259.474L538.92 259.666C539.078 260.064 539.157 260.5 539.157 260.973C539.157 261.545 539.041 262.063 538.808 262.529C538.582 262.988 538.267 263.378 537.861 263.701C537.455 264.025 536.974 264.276 536.418 264.457C535.869 264.63 535.275 264.716 534.637 264.716C534.411 264.716 534.193 264.705 533.983 264.682C533.772 264.66 533.566 264.63 533.363 264.592C533.002 264.81 532.822 265.054 532.822 265.325C532.822 265.558 532.927 265.731 533.137 265.843C533.355 265.949 533.641 266.024 533.994 266.069C534.347 266.114 534.749 266.144 535.2 266.159C535.651 266.167 536.113 266.189 536.587 266.227C537.06 266.264 537.523 266.332 537.973 266.43C538.424 266.52 538.827 266.666 539.18 266.869C539.533 267.072 539.815 267.35 540.025 267.704C540.243 268.049 540.352 268.496 540.352 269.045C540.352 269.556 540.224 270.052 539.969 270.533C539.721 271.014 539.356 271.443 538.875 271.818C538.402 272.194 537.816 272.495 537.117 272.72C536.425 272.953 535.636 273.07 534.749 273.07C533.877 273.07 533.118 272.983 532.472 272.81C531.826 272.645 531.288 272.42 530.86 272.134C530.432 271.856 530.112 271.533 529.902 271.164C529.691 270.796 529.586 270.413 529.586 270.015C529.586 269.473 529.748 269.023 530.071 268.662C530.402 268.294 530.852 268 531.424 267.782C531.115 267.625 530.871 267.414 530.691 267.151C530.51 266.888 530.42 266.542 530.42 266.114C530.42 265.941 530.45 265.765 530.51 265.584C530.578 265.396 530.672 265.212 530.792 265.032C530.92 264.851 531.078 264.682 531.266 264.524C531.454 264.359 531.675 264.213 531.931 264.085C531.345 263.769 530.883 263.348 530.544 262.822C530.214 262.296 530.048 261.68 530.048 260.973C530.048 260.402 530.161 259.887 530.386 259.429C530.619 258.963 530.939 258.568 531.345 258.245C531.758 257.914 532.243 257.663 532.799 257.49C533.363 257.317 533.975 257.231 534.637 257.231C535.133 257.231 535.599 257.283 536.034 257.388C536.47 257.486 536.869 257.633 537.229 257.828H540.555ZM565.92 252.699V269H563.248V258.471C563.248 258.05 563.271 257.595 563.316 257.107L558.389 266.362C558.156 266.805 557.799 267.027 557.318 267.027H556.89C556.409 267.027 556.052 266.805 555.819 266.362L550.836 257.073C550.859 257.321 550.877 257.565 550.892 257.806C550.907 258.046 550.915 258.268 550.915 258.471V269H548.243V252.699H550.532C550.667 252.699 550.783 252.702 550.881 252.71C550.979 252.717 551.065 252.736 551.14 252.766C551.223 252.796 551.295 252.845 551.355 252.913C551.422 252.98 551.486 253.071 551.546 253.183L556.428 262.236C556.555 262.476 556.672 262.724 556.777 262.98C556.89 263.236 556.999 263.499 557.104 263.769C557.209 263.491 557.318 263.224 557.431 262.969C557.544 262.706 557.664 262.454 557.792 262.213L562.606 253.183C562.666 253.071 562.73 252.98 562.797 252.913C562.865 252.845 562.936 252.796 563.011 252.766C563.094 252.736 563.184 252.717 563.282 252.71C563.38 252.702 563.496 252.699 563.631 252.699H565.92ZM574.941 264.062C574.137 264.1 573.461 264.171 572.912 264.276C572.363 264.374 571.924 264.502 571.593 264.66C571.262 264.818 571.026 265.002 570.883 265.212C570.74 265.423 570.669 265.652 570.669 265.9C570.669 266.388 570.811 266.738 571.097 266.948C571.39 267.159 571.77 267.264 572.236 267.264C572.807 267.264 573.299 267.162 573.712 266.96C574.133 266.749 574.543 266.433 574.941 266.013V264.062ZM568.561 259.046C569.891 257.828 571.492 257.219 573.363 257.219C574.039 257.219 574.644 257.332 575.178 257.557C575.712 257.775 576.163 258.084 576.531 258.482C576.899 258.873 577.177 259.342 577.365 259.891C577.56 260.44 577.658 261.041 577.658 261.695V269H576.396C576.133 269 575.93 268.962 575.787 268.887C575.644 268.805 575.531 268.643 575.449 268.403L575.201 267.568C574.907 267.831 574.622 268.064 574.344 268.267C574.066 268.463 573.776 268.628 573.476 268.763C573.175 268.899 572.852 269 572.506 269.068C572.168 269.143 571.792 269.18 571.379 269.18C570.89 269.18 570.439 269.116 570.026 268.989C569.613 268.853 569.256 268.654 568.955 268.391C568.654 268.128 568.422 267.801 568.256 267.41C568.091 267.02 568.008 266.565 568.008 266.046C568.008 265.753 568.057 265.464 568.155 265.178C568.252 264.885 568.41 264.607 568.628 264.344C568.854 264.081 569.143 263.833 569.496 263.6C569.849 263.367 570.282 263.164 570.793 262.991C571.311 262.818 571.913 262.679 572.596 262.574C573.28 262.461 574.062 262.394 574.941 262.371V261.695C574.941 260.921 574.776 260.35 574.445 259.981C574.115 259.605 573.637 259.418 573.014 259.418C572.563 259.418 572.187 259.47 571.886 259.575C571.593 259.681 571.334 259.801 571.108 259.936C570.883 260.064 570.676 260.18 570.488 260.286C570.308 260.391 570.105 260.443 569.88 260.443C569.684 260.443 569.519 260.395 569.384 260.297C569.248 260.192 569.139 260.071 569.057 259.936L568.561 259.046ZM587.541 260.387C587.225 260.004 586.879 259.733 586.504 259.575C586.135 259.418 585.737 259.339 585.309 259.339C584.888 259.339 584.508 259.418 584.17 259.575C583.832 259.733 583.542 259.974 583.302 260.297C583.061 260.613 582.877 261.018 582.75 261.514C582.622 262.003 582.558 262.582 582.558 263.251C582.558 263.927 582.61 264.502 582.716 264.975C582.828 265.441 582.986 265.825 583.189 266.125C583.392 266.418 583.64 266.633 583.933 266.768C584.226 266.896 584.553 266.96 584.914 266.96C585.493 266.96 585.985 266.839 586.391 266.599C586.797 266.358 587.18 266.016 587.541 265.573V260.387ZM590.325 252.248V269H588.623C588.255 269 588.022 268.831 587.924 268.493L587.687 267.377C587.221 267.91 586.684 268.342 586.075 268.673C585.474 269.004 584.771 269.169 583.967 269.169C583.336 269.169 582.757 269.038 582.231 268.775C581.705 268.511 581.25 268.132 580.867 267.636C580.491 267.132 580.198 266.512 579.988 265.776C579.785 265.039 579.683 264.198 579.683 263.251C579.683 262.394 579.8 261.597 580.033 260.861C580.266 260.124 580.6 259.485 581.036 258.944C581.472 258.403 581.994 257.982 582.603 257.681C583.212 257.373 583.896 257.219 584.655 257.219C585.301 257.219 585.853 257.321 586.312 257.524C586.77 257.727 587.18 258.001 587.541 258.347V252.248H590.325ZM600.525 261.886C600.525 261.526 600.472 261.188 600.367 260.872C600.27 260.549 600.119 260.267 599.916 260.026C599.713 259.786 599.454 259.598 599.138 259.463C598.83 259.32 598.47 259.249 598.056 259.249C597.252 259.249 596.617 259.478 596.151 259.936C595.693 260.395 595.399 261.045 595.272 261.886H600.525ZM595.215 263.566C595.26 264.16 595.366 264.675 595.531 265.111C595.696 265.539 595.914 265.896 596.185 266.182C596.455 266.46 596.775 266.67 597.143 266.813C597.519 266.948 597.932 267.016 598.383 267.016C598.834 267.016 599.221 266.963 599.544 266.858C599.875 266.753 600.161 266.636 600.401 266.509C600.649 266.381 600.863 266.264 601.044 266.159C601.232 266.054 601.412 266.001 601.585 266.001C601.818 266.001 601.991 266.088 602.103 266.261L602.904 267.275C602.596 267.636 602.25 267.94 601.867 268.188C601.483 268.429 601.081 268.624 600.66 268.775C600.247 268.917 599.822 269.019 599.386 269.079C598.958 269.139 598.541 269.169 598.135 269.169C597.331 269.169 596.583 269.038 595.892 268.775C595.2 268.504 594.599 268.109 594.088 267.591C593.577 267.065 593.175 266.418 592.882 265.652C592.589 264.878 592.442 263.983 592.442 262.969C592.442 262.18 592.57 261.439 592.825 260.748C593.081 260.049 593.445 259.444 593.919 258.933C594.4 258.414 594.982 258.005 595.666 257.704C596.358 257.403 597.136 257.253 598 257.253C598.729 257.253 599.401 257.37 600.018 257.603C600.634 257.836 601.164 258.178 601.607 258.628C602.051 259.072 602.396 259.621 602.644 260.274C602.9 260.921 603.028 261.661 603.028 262.495C603.028 262.916 602.983 263.202 602.892 263.352C602.802 263.495 602.629 263.566 602.374 263.566H595.215ZM614.083 255.111V259.632H619.788V261.965H614.083V266.576H621.321V269H611.04V252.699H621.321V255.111H614.083ZM629.613 264.062C628.809 264.1 628.132 264.171 627.584 264.276C627.035 264.374 626.595 264.502 626.265 264.66C625.934 264.818 625.697 265.002 625.554 265.212C625.412 265.423 625.34 265.652 625.34 265.9C625.34 266.388 625.483 266.738 625.769 266.948C626.062 267.159 626.441 267.264 626.907 267.264C627.478 267.264 627.971 267.162 628.384 266.96C628.805 266.749 629.215 266.433 629.613 266.013V264.062ZM623.232 259.046C624.562 257.828 626.163 257.219 628.035 257.219C628.711 257.219 629.316 257.332 629.85 257.557C630.383 257.775 630.834 258.084 631.202 258.482C631.571 258.873 631.849 259.342 632.037 259.891C632.232 260.44 632.33 261.041 632.33 261.695V269H631.067C630.804 269 630.601 268.962 630.458 268.887C630.316 268.805 630.203 268.643 630.12 268.403L629.872 267.568C629.579 267.831 629.294 268.064 629.015 268.267C628.737 268.463 628.448 268.628 628.147 268.763C627.847 268.899 627.524 269 627.178 269.068C626.84 269.143 626.464 269.18 626.051 269.18C625.562 269.18 625.111 269.116 624.698 268.989C624.284 268.853 623.927 268.654 623.627 268.391C623.326 268.128 623.093 267.801 622.928 267.41C622.762 267.02 622.68 266.565 622.68 266.046C622.68 265.753 622.729 265.464 622.826 265.178C622.924 264.885 623.082 264.607 623.3 264.344C623.525 264.081 623.815 263.833 624.168 263.6C624.521 263.367 624.953 263.164 625.464 262.991C625.983 262.818 626.584 262.679 627.268 262.574C627.952 262.461 628.734 262.394 629.613 262.371V261.695C629.613 260.921 629.448 260.35 629.117 259.981C628.786 259.605 628.309 259.418 627.685 259.418C627.234 259.418 626.858 259.47 626.558 259.575C626.265 259.681 626.005 259.801 625.78 259.936C625.554 260.064 625.348 260.18 625.16 260.286C624.98 260.391 624.777 260.443 624.551 260.443C624.356 260.443 624.19 260.395 624.055 260.297C623.92 260.192 623.811 260.071 623.728 259.936L623.232 259.046ZM642.009 259.688C641.934 259.808 641.855 259.895 641.773 259.947C641.69 259.993 641.585 260.015 641.457 260.015C641.322 260.015 641.175 259.978 641.017 259.902C640.867 259.827 640.69 259.745 640.488 259.654C640.285 259.557 640.052 259.47 639.789 259.395C639.533 259.32 639.229 259.282 638.875 259.282C638.327 259.282 637.895 259.399 637.579 259.632C637.271 259.865 637.117 260.169 637.117 260.545C637.117 260.793 637.196 261.003 637.353 261.176C637.519 261.342 637.733 261.488 637.996 261.616C638.267 261.744 638.571 261.86 638.909 261.965C639.247 262.063 639.589 262.172 639.935 262.292C640.288 262.413 640.634 262.552 640.972 262.709C641.31 262.86 641.611 263.055 641.874 263.296C642.145 263.529 642.359 263.81 642.517 264.141C642.682 264.472 642.765 264.87 642.765 265.336C642.765 265.892 642.663 266.407 642.46 266.881C642.265 267.347 641.972 267.752 641.581 268.098C641.19 268.436 640.705 268.703 640.127 268.899C639.556 269.086 638.894 269.18 638.143 269.18C637.744 269.18 637.353 269.143 636.97 269.068C636.594 269 636.23 268.902 635.877 268.775C635.531 268.647 635.208 268.496 634.907 268.324C634.614 268.151 634.355 267.963 634.129 267.76L634.772 266.7C634.855 266.572 634.952 266.475 635.065 266.407C635.178 266.339 635.321 266.306 635.493 266.306C635.666 266.306 635.828 266.355 635.978 266.452C636.136 266.55 636.316 266.655 636.519 266.768C636.722 266.881 636.959 266.986 637.229 267.084C637.508 267.181 637.857 267.23 638.278 267.23C638.609 267.23 638.89 267.192 639.123 267.117C639.364 267.035 639.559 266.929 639.71 266.802C639.867 266.674 639.98 266.527 640.048 266.362C640.123 266.189 640.161 266.013 640.161 265.832C640.161 265.562 640.078 265.34 639.913 265.167C639.755 264.994 639.541 264.844 639.27 264.716C639.007 264.588 638.703 264.476 638.357 264.378C638.019 264.273 637.669 264.16 637.308 264.04C636.955 263.919 636.606 263.78 636.26 263.623C635.922 263.457 635.617 263.251 635.347 263.003C635.084 262.755 634.87 262.45 634.704 262.089C634.546 261.729 634.468 261.293 634.468 260.782C634.468 260.308 634.561 259.857 634.749 259.429C634.937 259 635.212 258.628 635.572 258.313C635.941 257.99 636.395 257.734 636.936 257.546C637.485 257.351 638.116 257.253 638.83 257.253C639.627 257.253 640.352 257.385 641.006 257.648C641.66 257.911 642.205 258.256 642.641 258.685L642.009 259.688ZM655.147 257.433L648.845 272.179C648.763 272.375 648.654 272.521 648.518 272.619C648.391 272.724 648.191 272.777 647.921 272.777H645.847L648.011 268.132L643.333 257.433H645.779C645.997 257.433 646.166 257.486 646.286 257.591C646.414 257.697 646.508 257.817 646.568 257.952L649.026 263.95C649.108 264.152 649.176 264.355 649.229 264.558C649.289 264.761 649.345 264.968 649.398 265.178C649.465 264.968 649.533 264.761 649.601 264.558C649.668 264.348 649.743 264.141 649.826 263.938L652.148 257.952C652.209 257.802 652.306 257.678 652.442 257.58C652.584 257.482 652.742 257.433 652.915 257.433H655.147Z" fill="white"/>
<path d="M515.631 113.65L494.414 126.105L473.008 113.977L472.818 89.396L494.035 76.9403L515.442 89.0683L515.631 113.65Z" stroke="white" stroke-width="2.72422"/>
<path d="M508.026 109.413L494.547 117.326L480.949 109.621L480.828 94.0056L494.307 86.0927L507.906 93.7974L508.026 109.413Z" stroke="white" stroke-width="2.72422"/>
<path d="M501.35 105.649L494.469 109.689L487.526 105.755L487.465 97.7839L494.346 93.7441L501.289 97.6776L501.35 105.649Z" stroke="white" stroke-width="2.72422"/>
</g>
<defs>
<filter id="filter0_d_961_33321" x="0.490636" y="0" width="960.019" height="324.019" filterUnits="userSpaceOnUse" color-interpolation-filters="sRGB">
<feFlood flood-opacity="0" result="BackgroundImageFix"/>
<feColorMatrix in="SourceAlpha" type="matrix" values="0 0 0 0 0 0 0 0 0 0 0 0 0 0 0 0 0 0 127 0" result="hardAlpha"/>
<feOffset dy="4.50936"/>
<feGaussianBlur stdDeviation="2.25468"/>
<feComposite in2="hardAlpha" operator="out"/>
<feColorMatrix type="matrix" values="0 0 0 0 0 0 0 0 0 0 0 0 0 0 0 0 0 0 0.25 0"/>
<feBlend mode="normal" in2="BackgroundImageFix" result="effect1_dropShadow_961_33321"/>
<feBlend mode="normal" in="SourceGraphic" in2="effect1_dropShadow_961_33321" result="shape"/>
</filter>
<filter id="filter1_d_961_33321" x="0.490636" y="0" width="960.019" height="324.019" filterUnits="userSpaceOnUse" color-interpolation-filters="sRGB">
<feFlood flood-opacity="0" result="BackgroundImageFix"/>
<feColorMatrix in="SourceAlpha" type="matrix" values="0 0 0 0 0 0 0 0 0 0 0 0 0 0 0 0 0 0 127 0" result="hardAlpha"/>
<feOffset dy="4.50936"/>
<feGaussianBlur stdDeviation="2.25468"/>
<feComposite in2="hardAlpha" operator="out"/>
<feColorMatrix type="matrix" values="0 0 0 0 0 0 0 0 0 0 0 0 0 0 0 0 0 0 0.25 0"/>
<feBlend mode="normal" in2="BackgroundImageFix" result="effect1_dropShadow_961_33321"/>
<feBlend mode="normal" in="SourceGraphic" in2="effect1_dropShadow_961_33321" result="shape"/>
</filter>
<linearGradient id="paint0_linear_961_33321" x1="956" y1="315" x2="79.0904" y2="38.8404" gradientUnits="userSpaceOnUse">
<stop stop-color="#E20000"/>
<stop offset="1" stop-color="#F89D4C"/>
</linearGradient>
</defs>
</svg>
