<svg width="852" height="275" viewBox="0 0 852 275" fill="none" xmlns="http://www.w3.org/2000/svg">
<g filter="url(#filter0_d_961_33321)">
<g filter="url(#filter1_d_961_33321)">
<rect x="4" width="844" height="267" rx="40" fill="url(#paint0_linear_961_33321)"/>
</g>
<path d="M463 37.5H388C377.23 37.5 368.5 46.2304 368.5 57V132C368.5 142.77 377.23 151.5 388 151.5H463C473.77 151.5 482.5 142.77 482.5 132V57C482.5 46.2305 473.77 37.5 463 37.5Z" stroke="white"/>
<path d="M566.354 95.3536C566.549 95.1583 566.549 94.8417 566.354 94.6464L563.172 91.4645C562.976 91.2692 562.66 91.2692 562.464 91.4645C562.269 91.6597 562.269 91.9763 562.464 92.1716L565.293 95L562.464 97.8284C562.269 98.0237 562.269 98.3403 562.464 98.5355C562.66 98.7308 562.976 98.7308 563.172 98.5355L566.354 95.3536ZM483 95.5H485.594V94.5H483V95.5ZM490.781 95.5H495.969V94.5H490.781V95.5ZM501.156 95.5H506.344V94.5H501.156V95.5ZM511.531 95.5H516.719V94.5H511.531V95.5ZM521.906 95.5H527.094V94.5H521.906V95.5ZM532.281 95.5H537.469V94.5H532.281V95.5ZM542.656 95.5H547.844V94.5H542.656V95.5ZM553.031 95.5H558.219V94.5H553.031V95.5ZM563.406 95.5H566V94.5H563.406V95.5Z" fill="white"/>
<path d="M285 95H368" stroke="white" stroke-dasharray="5 5"/>
<path d="M216.23 83.3327L216.465 83.2564L216.649 83.4217L216.598 83.6617L216.362 83.738L216.179 83.5728L216.23 83.3327Z" fill="white" stroke="white" stroke-width="2"/>
<path d="M217.757 82.019L217.99 81.9434L218.172 82.1071L218.121 82.3448L217.888 82.4204L217.707 82.2567L217.757 82.019Z" fill="white" stroke="white" stroke-width="2"/>
<path d="M218.585 83.8483L218.82 83.772L219.004 83.9373L218.953 84.1774L218.718 84.2537L218.534 84.0884L218.585 83.8483Z" fill="white" stroke="white" stroke-width="2"/>
<path d="M252.592 102.418L250.53 101.604L250.204 99.4133L251.941 98.0356L254.004 98.8493L254.329 101.04L252.592 102.418Z" fill="white" stroke="white" stroke-width="2"/>
<path d="M247.751 102.499L245.694 101.687L245.369 99.5015L247.101 98.1274L249.158 98.939L249.483 101.124L247.751 102.499Z" fill="white" stroke="white" stroke-width="2"/>
<path d="M249.018 97.8479L246.956 97.0342L246.63 94.843L248.367 93.4653L250.429 94.279L250.755 96.4702L249.018 97.8479Z" fill="white" stroke="white" stroke-width="2"/>
<path d="M160.589 73.3869L158.526 72.5732L158.2 70.3821L159.937 69.0044L162 69.8181L162.325 72.0092L160.589 73.3869Z" fill="white" stroke="white" stroke-width="2"/>
<path d="M155.747 73.4674L153.69 72.6558L153.365 70.4703L155.097 69.0961L157.154 69.9077L157.479 72.0932L155.747 73.4674Z" fill="white" stroke="white" stroke-width="2"/>
<path d="M157.014 68.8166L154.952 68.0029L154.626 65.8118L156.363 64.434L158.425 65.2477L158.751 67.4389L157.014 68.8166Z" fill="white" stroke="white" stroke-width="2"/>
<path d="M244.765 132.902L244.257 132.701L244.177 132.162L244.605 131.823L245.112 132.023L245.192 132.562L244.765 132.902Z" fill="white" stroke="white" stroke-width="2"/>
<path d="M242.322 132.942L241.817 132.743L241.738 132.206L242.163 131.869L242.668 132.068L242.748 132.605L242.322 132.942Z" fill="white" stroke="white" stroke-width="2"/>
<path d="M203.428 76.3634L201.728 74.9343L202.116 72.7486L204.207 71.9915L205.907 73.4206L205.518 75.6064L203.428 76.3634Z" fill="white" fill-opacity="0.69" stroke="white" stroke-width="2"/>
<path d="M247.01 54.3659L245.556 52.6872L246.284 50.59L248.468 50.1712L249.922 51.8499L249.194 53.9471L247.01 54.3659Z" fill="white" fill-opacity="0.69" stroke="white" stroke-width="2"/>
<path d="M277.998 63.0691L276.544 61.3904L277.273 59.2931L279.456 58.8743L280.91 60.553L280.182 62.6502L277.998 63.0691Z" fill="white" fill-opacity="0.69" stroke="white" stroke-width="2"/>
<path d="M242.96 130.589L242.452 130.389L242.372 129.85L242.8 129.511L243.307 129.711L243.388 130.25L242.96 130.589Z" fill="white" stroke="white" stroke-width="2"/>
<path d="M236.05 145.472L235.542 145.272L235.462 144.733L235.89 144.393L236.397 144.594L236.477 145.133L236.05 145.472Z" fill="white" stroke="white" stroke-width="2"/>
<path d="M233.607 145.52L233.103 145.321L233.023 144.785L233.448 144.447L233.953 144.646L234.033 145.183L233.607 145.52Z" fill="white" stroke="white" stroke-width="2"/>
<path d="M234.245 143.167L233.738 142.967L233.657 142.428L234.085 142.089L234.593 142.289L234.673 142.828L234.245 143.167Z" fill="white" stroke="white" stroke-width="2"/>
<path d="M171.163 33.2455L170.656 33.0452L170.575 32.506L171.003 32.1668L171.511 32.367L171.591 32.9062L171.163 33.2455Z" fill="white" stroke="white" stroke-width="2"/>
<path d="M168.721 33.2935L168.216 33.0944L168.136 32.558L168.562 32.2205L169.066 32.4197L169.146 32.9561L168.721 33.2935Z" fill="white" stroke="white" stroke-width="2"/>
<path d="M169.358 30.9408L168.851 30.7405L168.771 30.2013L169.198 29.8621L169.706 30.0623L169.786 30.6015L169.358 30.9408Z" fill="white" stroke="white" stroke-width="2"/>
<path d="M186.659 157.081L186.152 156.881L186.071 156.342L186.499 156.003L187.007 156.203L187.087 156.742L186.659 157.081Z" fill="white" stroke="white" stroke-width="2"/>
<path d="M184.217 157.129L183.712 156.93L183.632 156.394L184.058 156.056L184.563 156.256L184.642 156.792L184.217 157.129Z" fill="white" stroke="white" stroke-width="2"/>
<path d="M184.854 154.777L184.347 154.576L184.267 154.037L184.694 153.698L185.202 153.898L185.282 154.437L184.854 154.777Z" fill="white" stroke="white" stroke-width="2"/>
<path d="M224.429 159.011L223.921 158.811L223.841 158.272L224.269 157.932L224.776 158.133L224.856 158.672L224.429 159.011Z" fill="white" stroke="white" stroke-width="2"/>
<path d="M221.986 159.059L221.482 158.86L221.402 158.324L221.827 157.986L222.332 158.185L222.412 158.722L221.986 159.059Z" fill="white" stroke="white" stroke-width="2"/>
<path d="M222.624 156.706L222.116 156.506L222.036 155.967L222.464 155.628L222.972 155.828L223.052 156.367L222.624 156.706Z" fill="white" stroke="white" stroke-width="2"/>
<path d="M212.73 142.947L212.118 143.567L211.275 143.348L211.043 142.51L211.655 141.89L212.498 142.109L212.73 142.947Z" fill="white" stroke="white" stroke-width="2"/>
<path d="M211.637 145.643L211.028 146.261L210.188 146.043L209.957 145.209L210.566 144.591L211.406 144.809L211.637 145.643Z" fill="white" stroke="white" stroke-width="2"/>
<path d="M209.359 143.845L208.747 144.465L207.904 144.246L207.672 143.409L208.283 142.788L209.127 143.007L209.359 143.845Z" fill="white" stroke="white" stroke-width="2"/>
<path d="M151.714 134.236L151.103 134.856L150.259 134.637L150.028 133.799L150.639 133.179L151.482 133.398L151.714 134.236Z" fill="white" stroke="white" stroke-width="2"/>
<path d="M150.621 136.932L150.012 137.55L149.172 137.332L148.941 136.498L149.55 135.88L150.39 136.098L150.621 136.932Z" fill="white" stroke="white" stroke-width="2"/>
<path d="M148.343 135.134L147.731 135.754L146.888 135.536L146.656 134.698L147.268 134.078L148.111 134.296L148.343 135.134Z" fill="white" stroke="white" stroke-width="2"/>
<path d="M177.449 134.077L175.536 135.2L173.607 134.107L173.59 131.892L175.502 130.77L177.432 131.863L177.449 134.077Z" fill="white" stroke="white" stroke-width="2"/>
<path d="M174.532 137.931L172.624 139.051L170.7 137.961L170.683 135.752L172.59 134.633L174.515 135.723L174.532 137.931Z" fill="white" stroke="white" stroke-width="2"/>
<path d="M171.636 134.077L169.724 135.2L167.794 134.107L167.777 131.892L169.69 130.77L171.619 131.863L171.636 134.077Z" fill="white" stroke="white" stroke-width="2"/>
<path d="M266.546 151.491L264.634 152.614L262.705 151.521L262.687 149.306L264.6 148.184L266.529 149.277L266.546 151.491Z" fill="white" stroke="white" stroke-width="2"/>
<path d="M263.629 155.345L261.722 156.465L259.797 155.375L259.78 153.166L261.688 152.047L263.612 153.137L263.629 155.345Z" fill="white" stroke="white" stroke-width="2"/>
<path d="M260.734 151.491L258.821 152.614L256.892 151.521L256.875 149.306L258.787 148.184L260.717 149.277L260.734 151.491Z" fill="white" stroke="white" stroke-width="2"/>
<path d="M183.281 78.7455L182.911 78.7939L182.684 78.498L182.827 78.1549L183.197 78.1066L183.423 78.4025L183.281 78.7455Z" fill="white" stroke="white" stroke-width="2"/>
<path d="M181.382 79.8406L181.015 79.8886L180.79 79.5948L180.931 79.2541L181.299 79.2061L181.524 79.4999L181.382 79.8406Z" fill="white" stroke="white" stroke-width="2"/>
<path d="M180.859 77.7221L180.489 77.7704L180.262 77.4745L180.405 77.1315L180.775 77.0831L181.002 77.379L180.859 77.7221Z" fill="white" stroke="white" stroke-width="2"/>
<path d="M200.811 67.6897L199.796 68.2854L198.772 67.7054L198.763 66.5314L199.778 65.9357L200.802 66.5157L200.811 67.6897Z" fill="white" stroke="white" stroke-width="2"/>
<path d="M198.796 70.3557L197.785 70.9495L196.764 70.3714L196.755 69.2013L197.767 68.6076L198.787 69.1857L198.796 70.3557Z" fill="white" stroke="white" stroke-width="2"/>
<path d="M196.795 67.6897L195.781 68.2854L194.757 67.7054L194.748 66.5314L195.763 65.9357L196.786 66.5157L196.795 67.6897Z" fill="white" stroke="white" stroke-width="2"/>
<path d="M218.245 42.5335L217.23 43.1292L216.206 42.5491L216.197 41.3751L217.212 40.7794L218.236 41.3594L218.245 42.5335Z" fill="white" stroke="white" stroke-width="2"/>
<path d="M216.229 45.1995L215.218 45.7932L214.198 45.2151L214.189 44.045L215.2 43.4513L216.22 44.0294L216.229 45.1995Z" fill="white" stroke="white" stroke-width="2"/>
<path d="M214.229 42.5335L213.214 43.1292L212.19 42.5491L212.181 41.3751L213.196 40.7794L214.22 41.3594L214.229 42.5335Z" fill="white" stroke="white" stroke-width="2"/>
<path d="M238.58 75.4241L237.566 76.0198L236.542 75.4398L236.533 74.2657L237.548 73.67L238.571 74.2501L238.58 75.4241Z" fill="white" stroke="white" stroke-width="2"/>
<path d="M236.565 78.0901L235.554 78.6838L234.534 78.1057L234.525 76.9357L235.536 76.3419L236.556 76.92L236.565 78.0901Z" fill="white" stroke="white" stroke-width="2"/>
<path d="M234.565 75.4241L233.55 76.0198L232.526 75.4398L232.517 74.2657L233.532 73.67L234.556 74.2501L234.565 75.4241Z" fill="white" stroke="white" stroke-width="2"/>
<path d="M161.104 98.6428L160.089 99.2385L159.065 98.6585L159.056 97.4845L160.071 96.8888L161.095 97.4688L161.104 98.6428Z" fill="white" stroke="white" stroke-width="2"/>
<path d="M159.089 101.309L158.078 101.903L157.057 101.324L157.048 100.154L158.059 99.5607L159.08 100.139L159.089 101.309Z" fill="white" stroke="white" stroke-width="2"/>
<path d="M157.088 98.6428L156.074 99.2385L155.05 98.6585L155.041 97.4845L156.055 96.8888L157.079 97.4688L157.088 98.6428Z" fill="white" stroke="white" stroke-width="2"/>
<path d="M176.6 92.846L175.585 93.4417L174.562 92.8616L174.552 91.6876L175.567 91.0919L176.591 91.6719L176.6 92.846Z" fill="white" stroke="white" stroke-width="2"/>
<path d="M174.585 95.512L173.574 96.1057L172.553 95.5276L172.544 94.3575L173.556 93.7638L174.576 94.3419L174.585 95.512Z" fill="white" stroke="white" stroke-width="2"/>
<path d="M172.584 92.846L171.57 93.4417L170.546 92.8616L170.537 91.6876L171.552 91.0919L172.575 91.6719L172.584 92.846Z" fill="white" stroke="white" stroke-width="2"/>
<path d="M179.818 117.199L183.399 100.243L199.888 94.8638L212.797 106.44L209.215 123.396L192.726 128.775L179.818 117.199Z" stroke="white" stroke-width="2"/>
<path d="M210.034 123.436L213.5 106.654L230.547 104.762L237.617 120.374L224.939 131.915L210.034 123.436Z" stroke="white" stroke-width="2"/>
<line y1="-1" x2="17.6964" y2="-1" transform="matrix(0.373424 -0.927315 0.928169 0.373019 231.309 104.898)" stroke="white" stroke-width="2"/>
<line y1="-1" x2="17.6966" y2="-1" transform="matrix(0.20656 -0.977993 0.978921 0.206342 200.656 94.2109)" stroke="white" stroke-width="2"/>
<line y1="-1" x2="17.8315" y2="-1" transform="matrix(0.954298 -0.300313 0.300598 0.953293 237.004 88.9531)" stroke="white" stroke-width="2"/>
<line y1="-1" x2="17.6964" y2="-1" transform="matrix(0.373424 -0.927315 0.928169 0.373019 254.125 83.2656)" stroke="white" stroke-width="2"/>
<line y1="-1" x2="17.6966" y2="-1" transform="matrix(0.951096 -0.310289 0.310584 0.950092 260.004 67.4531)" stroke="white" stroke-width="2"/>
<line y1="-1" x2="17.698" y2="-1" transform="matrix(-0.617115 -0.786656 0.787525 -0.616559 260.684 66.7969)" stroke="white" stroke-width="2"/>
<path d="M595.339 132.187L594.296 114.875L608.757 105.303L624.262 113.042L625.305 130.353L610.843 139.925L595.339 132.187Z" stroke="white" stroke-width="2"/>
<path d="M626.106 130.17L624.997 113.058L640.921 106.702L651.869 119.885L642.713 134.39L626.106 130.17Z" stroke="white" stroke-width="2"/>
<line y1="-1" x2="17.7039" y2="-1" transform="matrix(0.113957 -0.993481 0.993564 0.113308 641.693 106.633)" stroke="white" stroke-width="2"/>
<line y1="-1" x2="17.7015" y2="-1" transform="matrix(-0.0601806 -0.998182 0.99814 -0.0610543 609.322 104.469)" stroke="white" stroke-width="2"/>
<line y1="-1" x2="17.7015" y2="-1" transform="matrix(0.833891 -0.551939 0.551214 0.834357 643.162 89.8203)" stroke="white" stroke-width="2"/>
<line y1="-1" x2="17.7039" y2="-1" transform="matrix(0.113957 -0.993481 0.993564 0.113308 657.938 79.6953)" stroke="white" stroke-width="2"/>
<line y1="-1" x2="17.7015" y2="-1" transform="matrix(0.833891 -0.551939 0.551214 0.834357 659.408 62.8828)" stroke="white" stroke-width="2"/>
<line y1="-1" x2="17.6887" y2="-1" transform="matrix(-0.8035 -0.595302 0.595038 -0.8037 659.895 62.0781)" stroke="white" stroke-width="2"/>
<path d="M396.838 123.949V111H398.654V126H396.994L396.838 123.949ZM389.729 120.834V120.629C389.729 119.822 389.826 119.089 390.021 118.432C390.223 117.768 390.507 117.198 390.871 116.723C391.242 116.247 391.682 115.883 392.189 115.629C392.704 115.368 393.277 115.238 393.908 115.238C394.572 115.238 395.152 115.355 395.646 115.59C396.148 115.818 396.571 116.153 396.916 116.596C397.268 117.032 397.544 117.559 397.746 118.178C397.948 118.796 398.088 119.496 398.166 120.277V121.176C398.094 121.951 397.954 122.647 397.746 123.266C397.544 123.884 397.268 124.411 396.916 124.848C396.571 125.284 396.148 125.619 395.646 125.854C395.145 126.081 394.559 126.195 393.889 126.195C393.27 126.195 392.704 126.062 392.189 125.795C391.682 125.528 391.242 125.154 390.871 124.672C390.507 124.19 390.223 123.624 390.021 122.973C389.826 122.315 389.729 121.602 389.729 120.834ZM391.545 120.629V120.834C391.545 121.361 391.597 121.856 391.701 122.318C391.812 122.781 391.981 123.188 392.209 123.539C392.437 123.891 392.727 124.167 393.078 124.369C393.43 124.564 393.85 124.662 394.338 124.662C394.937 124.662 395.428 124.535 395.812 124.281C396.203 124.027 396.516 123.692 396.75 123.275C396.984 122.859 397.167 122.406 397.297 121.918V119.564C397.219 119.206 397.105 118.861 396.955 118.529C396.812 118.191 396.623 117.891 396.389 117.631C396.161 117.364 395.878 117.152 395.539 116.996C395.207 116.84 394.813 116.762 394.357 116.762C393.863 116.762 393.436 116.866 393.078 117.074C392.727 117.276 392.437 117.556 392.209 117.914C391.981 118.266 391.812 118.676 391.701 119.145C391.597 119.607 391.545 120.102 391.545 120.629ZM407.697 124.193V118.754C407.697 118.337 407.613 117.976 407.443 117.67C407.281 117.357 407.033 117.117 406.701 116.947C406.369 116.778 405.959 116.693 405.471 116.693C405.015 116.693 404.615 116.771 404.27 116.928C403.931 117.084 403.664 117.289 403.469 117.543C403.28 117.797 403.186 118.07 403.186 118.363H401.379C401.379 117.986 401.477 117.611 401.672 117.24C401.867 116.869 402.147 116.534 402.512 116.234C402.883 115.928 403.326 115.688 403.84 115.512C404.361 115.329 404.94 115.238 405.578 115.238C406.346 115.238 407.023 115.368 407.609 115.629C408.202 115.889 408.664 116.283 408.996 116.811C409.335 117.331 409.504 117.986 409.504 118.773V123.695C409.504 124.047 409.533 124.421 409.592 124.818C409.657 125.215 409.751 125.557 409.875 125.844V126H407.99C407.899 125.792 407.827 125.515 407.775 125.17C407.723 124.818 407.697 124.493 407.697 124.193ZM408.01 119.594L408.029 120.863H406.203C405.689 120.863 405.23 120.906 404.826 120.99C404.423 121.068 404.084 121.189 403.811 121.352C403.537 121.514 403.329 121.719 403.186 121.967C403.042 122.208 402.971 122.491 402.971 122.816C402.971 123.148 403.046 123.451 403.195 123.725C403.345 123.998 403.57 124.216 403.869 124.379C404.175 124.535 404.549 124.613 404.992 124.613C405.546 124.613 406.034 124.496 406.457 124.262C406.88 124.027 407.215 123.741 407.463 123.402C407.717 123.064 407.854 122.735 407.873 122.416L408.645 123.285C408.599 123.559 408.475 123.861 408.273 124.193C408.072 124.525 407.801 124.844 407.463 125.15C407.131 125.45 406.734 125.701 406.271 125.902C405.816 126.098 405.301 126.195 404.729 126.195C404.012 126.195 403.384 126.055 402.844 125.775C402.31 125.495 401.893 125.121 401.594 124.652C401.301 124.177 401.154 123.646 401.154 123.061C401.154 122.494 401.265 121.996 401.486 121.566C401.708 121.13 402.027 120.769 402.443 120.482C402.86 120.189 403.361 119.968 403.947 119.818C404.533 119.669 405.188 119.594 405.91 119.594H408.01ZM416.77 115.434V116.82H411.057V115.434H416.77ZM412.99 112.865H414.797V123.383C414.797 123.741 414.852 124.011 414.963 124.193C415.074 124.376 415.217 124.496 415.393 124.555C415.568 124.613 415.757 124.643 415.959 124.643C416.109 124.643 416.265 124.63 416.428 124.604C416.597 124.571 416.724 124.545 416.809 124.525L416.818 126C416.675 126.046 416.486 126.088 416.252 126.127C416.024 126.173 415.747 126.195 415.422 126.195C414.979 126.195 414.572 126.107 414.201 125.932C413.83 125.756 413.534 125.463 413.312 125.053C413.098 124.636 412.99 124.076 412.99 123.373V112.865ZM425.119 124.193V118.754C425.119 118.337 425.035 117.976 424.865 117.67C424.702 117.357 424.455 117.117 424.123 116.947C423.791 116.778 423.381 116.693 422.893 116.693C422.437 116.693 422.036 116.771 421.691 116.928C421.353 117.084 421.086 117.289 420.891 117.543C420.702 117.797 420.607 118.07 420.607 118.363H418.801C418.801 117.986 418.898 117.611 419.094 117.24C419.289 116.869 419.569 116.534 419.934 116.234C420.305 115.928 420.747 115.688 421.262 115.512C421.783 115.329 422.362 115.238 423 115.238C423.768 115.238 424.445 115.368 425.031 115.629C425.624 115.889 426.086 116.283 426.418 116.811C426.757 117.331 426.926 117.986 426.926 118.773V123.695C426.926 124.047 426.955 124.421 427.014 124.818C427.079 125.215 427.173 125.557 427.297 125.844V126H425.412C425.321 125.792 425.249 125.515 425.197 125.17C425.145 124.818 425.119 124.493 425.119 124.193ZM425.432 119.594L425.451 120.863H423.625C423.111 120.863 422.652 120.906 422.248 120.99C421.844 121.068 421.506 121.189 421.232 121.352C420.959 121.514 420.751 121.719 420.607 121.967C420.464 122.208 420.393 122.491 420.393 122.816C420.393 123.148 420.467 123.451 420.617 123.725C420.767 123.998 420.992 124.216 421.291 124.379C421.597 124.535 421.971 124.613 422.414 124.613C422.967 124.613 423.456 124.496 423.879 124.262C424.302 124.027 424.637 123.741 424.885 123.402C425.139 123.064 425.275 122.735 425.295 122.416L426.066 123.285C426.021 123.559 425.897 123.861 425.695 124.193C425.493 124.525 425.223 124.844 424.885 125.15C424.553 125.45 424.156 125.701 423.693 125.902C423.238 126.098 422.723 126.195 422.15 126.195C421.434 126.195 420.806 126.055 420.266 125.775C419.732 125.495 419.315 125.121 419.016 124.652C418.723 124.177 418.576 123.646 418.576 123.061C418.576 122.494 418.687 121.996 418.908 121.566C419.13 121.13 419.449 120.769 419.865 120.482C420.282 120.189 420.783 119.968 421.369 119.818C421.955 119.669 422.609 119.594 423.332 119.594H425.432ZM431.564 117.533V126H429.748V115.434H431.467L431.564 117.533ZM431.193 120.316L430.354 120.287C430.36 119.564 430.454 118.897 430.637 118.285C430.819 117.667 431.089 117.13 431.447 116.674C431.805 116.218 432.251 115.867 432.785 115.619C433.319 115.365 433.938 115.238 434.641 115.238C435.135 115.238 435.591 115.31 436.008 115.453C436.424 115.59 436.786 115.808 437.092 116.107C437.398 116.407 437.635 116.791 437.805 117.26C437.974 117.729 438.059 118.295 438.059 118.959V126H436.252V119.047C436.252 118.493 436.158 118.051 435.969 117.719C435.786 117.387 435.526 117.146 435.188 116.996C434.849 116.84 434.452 116.762 433.996 116.762C433.462 116.762 433.016 116.856 432.658 117.045C432.3 117.234 432.014 117.494 431.799 117.826C431.584 118.158 431.428 118.539 431.33 118.969C431.239 119.392 431.193 119.841 431.193 120.316ZM438.039 119.32L436.828 119.691C436.835 119.112 436.929 118.555 437.111 118.021C437.3 117.488 437.57 117.012 437.922 116.596C438.28 116.179 438.719 115.85 439.24 115.609C439.761 115.362 440.357 115.238 441.027 115.238C441.594 115.238 442.095 115.313 442.531 115.463C442.974 115.613 443.345 115.844 443.645 116.156C443.951 116.462 444.182 116.856 444.338 117.338C444.494 117.82 444.572 118.393 444.572 119.057V126H442.756V119.037C442.756 118.445 442.661 117.986 442.473 117.66C442.29 117.328 442.03 117.097 441.691 116.967C441.359 116.83 440.962 116.762 440.5 116.762C440.103 116.762 439.751 116.83 439.445 116.967C439.139 117.104 438.882 117.292 438.674 117.533C438.465 117.768 438.306 118.038 438.195 118.344C438.091 118.65 438.039 118.975 438.039 119.32ZM446.828 120.834V120.609C446.828 119.848 446.939 119.141 447.16 118.49C447.382 117.833 447.701 117.263 448.117 116.781C448.534 116.293 449.038 115.915 449.631 115.648C450.223 115.375 450.887 115.238 451.623 115.238C452.365 115.238 453.033 115.375 453.625 115.648C454.224 115.915 454.732 116.293 455.148 116.781C455.572 117.263 455.894 117.833 456.115 118.49C456.337 119.141 456.447 119.848 456.447 120.609V120.834C456.447 121.596 456.337 122.302 456.115 122.953C455.894 123.604 455.572 124.174 455.148 124.662C454.732 125.144 454.227 125.521 453.635 125.795C453.049 126.062 452.385 126.195 451.643 126.195C450.9 126.195 450.233 126.062 449.641 125.795C449.048 125.521 448.54 125.144 448.117 124.662C447.701 124.174 447.382 123.604 447.16 122.953C446.939 122.302 446.828 121.596 446.828 120.834ZM448.635 120.609V120.834C448.635 121.361 448.697 121.859 448.82 122.328C448.944 122.79 449.13 123.201 449.377 123.559C449.631 123.917 449.947 124.2 450.324 124.408C450.702 124.61 451.141 124.711 451.643 124.711C452.137 124.711 452.57 124.61 452.941 124.408C453.319 124.2 453.632 123.917 453.879 123.559C454.126 123.201 454.312 122.79 454.436 122.328C454.566 121.859 454.631 121.361 454.631 120.834V120.609C454.631 120.089 454.566 119.597 454.436 119.135C454.312 118.666 454.123 118.253 453.869 117.895C453.622 117.53 453.309 117.243 452.932 117.035C452.561 116.827 452.124 116.723 451.623 116.723C451.128 116.723 450.692 116.827 450.314 117.035C449.943 117.243 449.631 117.53 449.377 117.895C449.13 118.253 448.944 118.666 448.82 119.135C448.697 119.597 448.635 120.089 448.635 120.609ZM460.676 111V126H458.859V111H460.676Z" fill="white"/>
<path d="M298.026 203.54V218H295.656V208.66C295.656 208.287 295.676 207.883 295.716 207.45L291.346 215.66C291.14 216.053 290.823 216.25 290.396 216.25H290.016C289.59 216.25 289.273 216.053 289.066 215.66L284.646 207.42C284.666 207.64 284.683 207.857 284.696 208.07C284.71 208.283 284.716 208.48 284.716 208.66V218H282.346V203.54H284.376C284.496 203.54 284.6 203.543 284.686 203.55C284.773 203.557 284.85 203.573 284.916 203.6C284.99 203.627 285.053 203.67 285.106 203.73C285.166 203.79 285.223 203.87 285.276 203.97L289.606 212C289.72 212.213 289.823 212.433 289.916 212.66C290.016 212.887 290.113 213.12 290.206 213.36C290.3 213.113 290.396 212.877 290.496 212.65C290.596 212.417 290.703 212.193 290.816 211.98L295.086 203.97C295.14 203.87 295.196 203.79 295.256 203.73C295.316 203.67 295.38 203.627 295.446 203.6C295.52 203.573 295.6 203.557 295.686 203.55C295.773 203.543 295.876 203.54 295.996 203.54H298.026ZM305.09 207.58C305.85 207.58 306.54 207.703 307.16 207.95C307.787 208.197 308.32 208.547 308.76 209C309.207 209.453 309.55 210.007 309.79 210.66C310.03 211.313 310.15 212.043 310.15 212.85C310.15 213.663 310.03 214.397 309.79 215.05C309.55 215.703 309.207 216.26 308.76 216.72C308.32 217.18 307.787 217.533 307.16 217.78C306.54 218.027 305.85 218.15 305.09 218.15C304.323 218.15 303.627 218.027 303 217.78C302.373 217.533 301.837 217.18 301.39 216.72C300.95 216.26 300.607 215.703 300.36 215.05C300.12 214.397 300 213.663 300 212.85C300 212.043 300.12 211.313 300.36 210.66C300.607 210.007 300.95 209.453 301.39 209C301.837 208.547 302.373 208.197 303 207.95C303.627 207.703 304.323 207.58 305.09 207.58ZM305.09 216.25C305.943 216.25 306.573 215.963 306.98 215.39C307.393 214.817 307.6 213.977 307.6 212.87C307.6 211.763 307.393 210.92 306.98 210.34C306.573 209.76 305.943 209.47 305.09 209.47C304.223 209.47 303.58 209.763 303.16 210.35C302.747 210.93 302.54 211.77 302.54 212.87C302.54 213.97 302.747 214.81 303.16 215.39C303.58 215.963 304.223 216.25 305.09 216.25ZM314.534 203.14V218H312.064V203.14H314.534ZM323.605 211.69C323.605 211.37 323.559 211.07 323.465 210.79C323.379 210.503 323.245 210.253 323.065 210.04C322.885 209.827 322.655 209.66 322.375 209.54C322.102 209.413 321.782 209.35 321.415 209.35C320.702 209.35 320.139 209.553 319.725 209.96C319.319 210.367 319.059 210.943 318.945 211.69H323.605ZM318.895 213.18C318.935 213.707 319.029 214.163 319.175 214.55C319.322 214.93 319.515 215.247 319.755 215.5C319.995 215.747 320.279 215.933 320.605 216.06C320.939 216.18 321.305 216.24 321.705 216.24C322.105 216.24 322.449 216.193 322.735 216.1C323.029 216.007 323.282 215.903 323.495 215.79C323.715 215.677 323.905 215.573 324.065 215.48C324.232 215.387 324.392 215.34 324.545 215.34C324.752 215.34 324.905 215.417 325.005 215.57L325.715 216.47C325.442 216.79 325.135 217.06 324.795 217.28C324.455 217.493 324.099 217.667 323.725 217.8C323.359 217.927 322.982 218.017 322.595 218.07C322.215 218.123 321.845 218.15 321.485 218.15C320.772 218.15 320.109 218.033 319.495 217.8C318.882 217.56 318.349 217.21 317.895 216.75C317.442 216.283 317.085 215.71 316.825 215.03C316.565 214.343 316.435 213.55 316.435 212.65C316.435 211.95 316.549 211.293 316.775 210.68C317.002 210.06 317.325 209.523 317.745 209.07C318.172 208.61 318.689 208.247 319.295 207.98C319.909 207.713 320.599 207.58 321.365 207.58C322.012 207.58 322.609 207.683 323.155 207.89C323.702 208.097 324.172 208.4 324.565 208.8C324.959 209.193 325.265 209.68 325.485 210.26C325.712 210.833 325.825 211.49 325.825 212.23C325.825 212.603 325.785 212.857 325.705 212.99C325.625 213.117 325.472 213.18 325.245 213.18H318.895ZM335.029 209.91C334.956 210.003 334.882 210.077 334.809 210.13C334.742 210.183 334.642 210.21 334.509 210.21C334.382 210.21 334.259 210.173 334.139 210.1C334.019 210.02 333.876 209.933 333.709 209.84C333.542 209.74 333.342 209.653 333.109 209.58C332.882 209.5 332.599 209.46 332.259 209.46C331.826 209.46 331.446 209.54 331.119 209.7C330.792 209.853 330.519 210.077 330.299 210.37C330.086 210.663 329.926 211.02 329.819 211.44C329.712 211.853 329.659 212.323 329.659 212.85C329.659 213.397 329.716 213.883 329.829 214.31C329.949 214.737 330.119 215.097 330.339 215.39C330.559 215.677 330.826 215.897 331.139 216.05C331.452 216.197 331.806 216.27 332.199 216.27C332.592 216.27 332.909 216.223 333.149 216.13C333.396 216.03 333.602 215.923 333.769 215.81C333.936 215.69 334.079 215.583 334.199 215.49C334.326 215.39 334.466 215.34 334.619 215.34C334.819 215.34 334.969 215.417 335.069 215.57L335.779 216.47C335.506 216.79 335.209 217.06 334.889 217.28C334.569 217.493 334.236 217.667 333.889 217.8C333.549 217.927 333.196 218.017 332.829 218.07C332.469 218.123 332.109 218.15 331.749 218.15C331.116 218.15 330.519 218.033 329.959 217.8C329.399 217.56 328.909 217.213 328.489 216.76C328.069 216.307 327.736 215.753 327.489 215.1C327.249 214.44 327.129 213.69 327.129 212.85C327.129 212.097 327.236 211.4 327.449 210.76C327.669 210.113 327.989 209.557 328.409 209.09C328.829 208.617 329.349 208.247 329.969 207.98C330.589 207.713 331.302 207.58 332.109 207.58C332.876 207.58 333.546 207.703 334.119 207.95C334.699 208.197 335.219 208.55 335.679 209.01L335.029 209.91ZM346.167 207.74V218H344.657C344.331 218 344.124 217.85 344.037 217.55L343.867 216.73C343.447 217.157 342.984 217.503 342.477 217.77C341.971 218.03 341.374 218.16 340.687 218.16C340.127 218.16 339.631 218.067 339.197 217.88C338.771 217.687 338.411 217.417 338.117 217.07C337.824 216.723 337.601 216.313 337.447 215.84C337.301 215.36 337.227 214.833 337.227 214.26V207.74H339.697V214.26C339.697 214.887 339.841 215.373 340.127 215.72C340.421 216.06 340.857 216.23 341.437 216.23C341.864 216.23 342.264 216.137 342.637 215.95C343.011 215.757 343.364 215.493 343.697 215.16V207.74H346.167ZM351.116 203.14V218H348.646V203.14H351.116ZM358.997 213.62C358.284 213.653 357.684 213.717 357.197 213.81C356.711 213.897 356.321 214.01 356.027 214.15C355.734 214.29 355.524 214.453 355.397 214.64C355.271 214.827 355.207 215.03 355.207 215.25C355.207 215.683 355.334 215.993 355.587 216.18C355.847 216.367 356.184 216.46 356.597 216.46C357.104 216.46 357.541 216.37 357.907 216.19C358.281 216.003 358.644 215.723 358.997 215.35V213.62ZM353.337 209.17C354.517 208.09 355.937 207.55 357.597 207.55C358.197 207.55 358.734 207.65 359.207 207.85C359.681 208.043 360.081 208.317 360.407 208.67C360.734 209.017 360.981 209.433 361.147 209.92C361.321 210.407 361.407 210.94 361.407 211.52V218H360.287C360.054 218 359.874 217.967 359.747 217.9C359.621 217.827 359.521 217.683 359.447 217.47L359.227 216.73C358.967 216.963 358.714 217.17 358.467 217.35C358.221 217.523 357.964 217.67 357.697 217.79C357.431 217.91 357.144 218 356.837 218.06C356.537 218.127 356.204 218.16 355.837 218.16C355.404 218.16 355.004 218.103 354.637 217.99C354.271 217.87 353.954 217.693 353.687 217.46C353.421 217.227 353.214 216.937 353.067 216.59C352.921 216.243 352.847 215.84 352.847 215.38C352.847 215.12 352.891 214.863 352.977 214.61C353.064 214.35 353.204 214.103 353.397 213.87C353.597 213.637 353.854 213.417 354.167 213.21C354.481 213.003 354.864 212.823 355.317 212.67C355.777 212.517 356.311 212.393 356.917 212.3C357.524 212.2 358.217 212.14 358.997 212.12V211.52C358.997 210.833 358.851 210.327 358.557 210C358.264 209.667 357.841 209.5 357.287 209.5C356.887 209.5 356.554 209.547 356.287 209.64C356.027 209.733 355.797 209.84 355.597 209.96C355.397 210.073 355.214 210.177 355.047 210.27C354.887 210.363 354.707 210.41 354.507 210.41C354.334 210.41 354.187 210.367 354.067 210.28C353.947 210.187 353.851 210.08 353.777 209.96L353.337 209.17ZM366.064 209.52C366.384 208.907 366.764 208.427 367.204 208.08C367.644 207.727 368.164 207.55 368.764 207.55C369.237 207.55 369.617 207.653 369.904 207.86L369.744 209.71C369.71 209.83 369.66 209.917 369.594 209.97C369.534 210.017 369.45 210.04 369.344 210.04C369.244 210.04 369.094 210.023 368.894 209.99C368.7 209.957 368.51 209.94 368.324 209.94C368.05 209.94 367.807 209.98 367.594 210.06C367.38 210.14 367.187 210.257 367.014 210.41C366.847 210.557 366.697 210.737 366.564 210.95C366.437 211.163 366.317 211.407 366.204 211.68V218H363.734V207.74H365.184C365.437 207.74 365.614 207.787 365.714 207.88C365.814 207.967 365.88 208.127 365.914 208.36L366.064 209.52ZM380.718 210.81C381.212 210.81 381.642 210.75 382.008 210.63C382.375 210.503 382.678 210.327 382.918 210.1C383.165 209.867 383.348 209.587 383.468 209.26C383.588 208.927 383.648 208.557 383.648 208.15C383.648 207.763 383.588 207.413 383.468 207.1C383.348 206.787 383.168 206.52 382.928 206.3C382.688 206.08 382.385 205.913 382.018 205.8C381.652 205.68 381.218 205.62 380.718 205.62H378.708V210.81H380.718ZM380.718 203.54C381.685 203.54 382.522 203.653 383.228 203.88C383.935 204.107 384.518 204.423 384.978 204.83C385.438 205.237 385.778 205.723 385.998 206.29C386.225 206.857 386.338 207.477 386.338 208.15C386.338 208.85 386.222 209.493 385.988 210.08C385.755 210.66 385.405 211.16 384.938 211.58C384.472 212 383.885 212.327 383.178 212.56C382.478 212.793 381.658 212.91 380.718 212.91H378.708V218H376.018V203.54H380.718ZM390.185 209.52C390.505 208.907 390.885 208.427 391.325 208.08C391.765 207.727 392.285 207.55 392.885 207.55C393.358 207.55 393.738 207.653 394.025 207.86L393.865 209.71C393.831 209.83 393.781 209.917 393.715 209.97C393.655 210.017 393.571 210.04 393.465 210.04C393.365 210.04 393.215 210.023 393.015 209.99C392.821 209.957 392.631 209.94 392.445 209.94C392.171 209.94 391.928 209.98 391.715 210.06C391.501 210.14 391.308 210.257 391.135 210.41C390.968 210.557 390.818 210.737 390.685 210.95C390.558 211.163 390.438 211.407 390.325 211.68V218H387.855V207.74H389.305C389.558 207.74 389.735 207.787 389.835 207.88C389.935 207.967 390.001 208.127 390.035 208.36L390.185 209.52ZM399.563 207.58C400.323 207.58 401.013 207.703 401.633 207.95C402.259 208.197 402.793 208.547 403.233 209C403.679 209.453 404.023 210.007 404.263 210.66C404.503 211.313 404.623 212.043 404.623 212.85C404.623 213.663 404.503 214.397 404.263 215.05C404.023 215.703 403.679 216.26 403.233 216.72C402.793 217.18 402.259 217.533 401.633 217.78C401.013 218.027 400.323 218.15 399.563 218.15C398.796 218.15 398.099 218.027 397.473 217.78C396.846 217.533 396.309 217.18 395.863 216.72C395.423 216.26 395.079 215.703 394.833 215.05C394.593 214.397 394.473 213.663 394.473 212.85C394.473 212.043 394.593 211.313 394.833 210.66C395.079 210.007 395.423 209.453 395.863 209C396.309 208.547 396.846 208.197 397.473 207.95C398.099 207.703 398.796 207.58 399.563 207.58ZM399.563 216.25C400.416 216.25 401.046 215.963 401.453 215.39C401.866 214.817 402.073 213.977 402.073 212.87C402.073 211.763 401.866 210.92 401.453 210.34C401.046 209.76 400.416 209.47 399.563 209.47C398.696 209.47 398.053 209.763 397.633 210.35C397.219 210.93 397.013 211.77 397.013 212.87C397.013 213.97 397.219 214.81 397.633 215.39C398.053 215.963 398.696 216.25 399.563 216.25ZM413.857 209.91C413.784 210.003 413.71 210.077 413.637 210.13C413.57 210.183 413.47 210.21 413.337 210.21C413.21 210.21 413.087 210.173 412.967 210.1C412.847 210.02 412.704 209.933 412.537 209.84C412.37 209.74 412.17 209.653 411.937 209.58C411.71 209.5 411.427 209.46 411.087 209.46C410.654 209.46 410.274 209.54 409.947 209.7C409.62 209.853 409.347 210.077 409.127 210.37C408.914 210.663 408.754 211.02 408.647 211.44C408.54 211.853 408.487 212.323 408.487 212.85C408.487 213.397 408.544 213.883 408.657 214.31C408.777 214.737 408.947 215.097 409.167 215.39C409.387 215.677 409.654 215.897 409.967 216.05C410.28 216.197 410.634 216.27 411.027 216.27C411.42 216.27 411.737 216.223 411.977 216.13C412.224 216.03 412.43 215.923 412.597 215.81C412.764 215.69 412.907 215.583 413.027 215.49C413.154 215.39 413.294 215.34 413.447 215.34C413.647 215.34 413.797 215.417 413.897 215.57L414.607 216.47C414.334 216.79 414.037 217.06 413.717 217.28C413.397 217.493 413.064 217.667 412.717 217.8C412.377 217.927 412.024 218.017 411.657 218.07C411.297 218.123 410.937 218.15 410.577 218.15C409.944 218.15 409.347 218.033 408.787 217.8C408.227 217.56 407.737 217.213 407.317 216.76C406.897 216.307 406.564 215.753 406.317 215.1C406.077 214.44 405.957 213.69 405.957 212.85C405.957 212.097 406.064 211.4 406.277 210.76C406.497 210.113 406.817 209.557 407.237 209.09C407.657 208.617 408.177 208.247 408.797 207.98C409.417 207.713 410.13 207.58 410.937 207.58C411.704 207.58 412.374 207.703 412.947 207.95C413.527 208.197 414.047 208.55 414.507 209.01L413.857 209.91ZM422.59 211.69C422.59 211.37 422.543 211.07 422.45 210.79C422.363 210.503 422.23 210.253 422.05 210.04C421.87 209.827 421.64 209.66 421.36 209.54C421.086 209.413 420.766 209.35 420.4 209.35C419.686 209.35 419.123 209.553 418.71 209.96C418.303 210.367 418.043 210.943 417.93 211.69H422.59ZM417.88 213.18C417.92 213.707 418.013 214.163 418.16 214.55C418.306 214.93 418.5 215.247 418.74 215.5C418.98 215.747 419.263 215.933 419.59 216.06C419.923 216.18 420.29 216.24 420.69 216.24C421.09 216.24 421.433 216.193 421.72 216.1C422.013 216.007 422.266 215.903 422.48 215.79C422.7 215.677 422.89 215.573 423.05 215.48C423.216 215.387 423.376 215.34 423.53 215.34C423.736 215.34 423.89 215.417 423.99 215.57L424.7 216.47C424.426 216.79 424.12 217.06 423.78 217.28C423.44 217.493 423.083 217.667 422.71 217.8C422.343 217.927 421.966 218.017 421.58 218.07C421.2 218.123 420.83 218.15 420.47 218.15C419.756 218.15 419.093 218.033 418.48 217.8C417.866 217.56 417.333 217.21 416.88 216.75C416.426 216.283 416.07 215.71 415.81 215.03C415.55 214.343 415.42 213.55 415.42 212.65C415.42 211.95 415.533 211.293 415.76 210.68C415.986 210.06 416.31 209.523 416.73 209.07C417.156 208.61 417.673 208.247 418.28 207.98C418.893 207.713 419.583 207.58 420.35 207.58C420.996 207.58 421.593 207.683 422.14 207.89C422.686 208.097 423.156 208.4 423.55 208.8C423.943 209.193 424.25 209.68 424.47 210.26C424.696 210.833 424.81 211.49 424.81 212.23C424.81 212.603 424.77 212.857 424.69 212.99C424.61 213.117 424.456 213.18 424.23 213.18H417.88ZM432.923 209.74C432.857 209.847 432.787 209.923 432.713 209.97C432.64 210.01 432.547 210.03 432.433 210.03C432.313 210.03 432.183 209.997 432.043 209.93C431.91 209.863 431.753 209.79 431.573 209.71C431.393 209.623 431.187 209.547 430.953 209.48C430.727 209.413 430.457 209.38 430.143 209.38C429.657 209.38 429.273 209.483 428.993 209.69C428.72 209.897 428.583 210.167 428.583 210.5C428.583 210.72 428.653 210.907 428.793 211.06C428.94 211.207 429.13 211.337 429.363 211.45C429.603 211.563 429.873 211.667 430.173 211.76C430.473 211.847 430.777 211.943 431.083 212.05C431.397 212.157 431.703 212.28 432.003 212.42C432.303 212.553 432.57 212.727 432.803 212.94C433.043 213.147 433.233 213.397 433.373 213.69C433.52 213.983 433.593 214.337 433.593 214.75C433.593 215.243 433.503 215.7 433.323 216.12C433.15 216.533 432.89 216.893 432.543 217.2C432.197 217.5 431.767 217.737 431.253 217.91C430.747 218.077 430.16 218.16 429.493 218.16C429.14 218.16 428.793 218.127 428.453 218.06C428.12 218 427.797 217.913 427.483 217.8C427.177 217.687 426.89 217.553 426.623 217.4C426.363 217.247 426.133 217.08 425.933 216.9L426.503 215.96C426.577 215.847 426.663 215.76 426.763 215.7C426.863 215.64 426.99 215.61 427.143 215.61C427.297 215.61 427.44 215.653 427.573 215.74C427.713 215.827 427.873 215.92 428.053 216.02C428.233 216.12 428.443 216.213 428.683 216.3C428.93 216.387 429.24 216.43 429.613 216.43C429.907 216.43 430.157 216.397 430.363 216.33C430.577 216.257 430.75 216.163 430.883 216.05C431.023 215.937 431.123 215.807 431.183 215.66C431.25 215.507 431.283 215.35 431.283 215.19C431.283 214.95 431.21 214.753 431.063 214.6C430.923 214.447 430.733 214.313 430.493 214.2C430.26 214.087 429.99 213.987 429.683 213.9C429.383 213.807 429.073 213.707 428.753 213.6C428.44 213.493 428.13 213.37 427.823 213.23C427.523 213.083 427.253 212.9 427.013 212.68C426.78 212.46 426.59 212.19 426.443 211.87C426.303 211.55 426.233 211.163 426.233 210.71C426.233 210.29 426.317 209.89 426.483 209.51C426.65 209.13 426.893 208.8 427.213 208.52C427.54 208.233 427.943 208.007 428.423 207.84C428.91 207.667 429.47 207.58 430.103 207.58C430.81 207.58 431.453 207.697 432.033 207.93C432.613 208.163 433.097 208.47 433.483 208.85L432.923 209.74ZM441.712 209.74C441.646 209.847 441.576 209.923 441.502 209.97C441.429 210.01 441.336 210.03 441.222 210.03C441.102 210.03 440.972 209.997 440.832 209.93C440.699 209.863 440.542 209.79 440.362 209.71C440.182 209.623 439.976 209.547 439.742 209.48C439.516 209.413 439.246 209.38 438.932 209.38C438.446 209.38 438.062 209.483 437.782 209.69C437.509 209.897 437.372 210.167 437.372 210.5C437.372 210.72 437.442 210.907 437.582 211.06C437.729 211.207 437.919 211.337 438.152 211.45C438.392 211.563 438.662 211.667 438.962 211.76C439.262 211.847 439.566 211.943 439.872 212.05C440.186 212.157 440.492 212.28 440.792 212.42C441.092 212.553 441.359 212.727 441.592 212.94C441.832 213.147 442.022 213.397 442.162 213.69C442.309 213.983 442.382 214.337 442.382 214.75C442.382 215.243 442.292 215.7 442.112 216.12C441.939 216.533 441.679 216.893 441.332 217.2C440.986 217.5 440.556 217.737 440.042 217.91C439.536 218.077 438.949 218.16 438.282 218.16C437.929 218.16 437.582 218.127 437.242 218.06C436.909 218 436.586 217.913 436.272 217.8C435.966 217.687 435.679 217.553 435.412 217.4C435.152 217.247 434.922 217.08 434.722 216.9L435.292 215.96C435.366 215.847 435.452 215.76 435.552 215.7C435.652 215.64 435.779 215.61 435.932 215.61C436.086 215.61 436.229 215.653 436.362 215.74C436.502 215.827 436.662 215.92 436.842 216.02C437.022 216.12 437.232 216.213 437.472 216.3C437.719 216.387 438.029 216.43 438.402 216.43C438.696 216.43 438.946 216.397 439.152 216.33C439.366 216.257 439.539 216.163 439.672 216.05C439.812 215.937 439.912 215.807 439.972 215.66C440.039 215.507 440.072 215.35 440.072 215.19C440.072 214.95 439.999 214.753 439.852 214.6C439.712 214.447 439.522 214.313 439.282 214.2C439.049 214.087 438.779 213.987 438.472 213.9C438.172 213.807 437.862 213.707 437.542 213.6C437.229 213.493 436.919 213.37 436.612 213.23C436.312 213.083 436.042 212.9 435.802 212.68C435.569 212.46 435.379 212.19 435.232 211.87C435.092 211.55 435.022 211.163 435.022 210.71C435.022 210.29 435.106 209.89 435.272 209.51C435.439 209.13 435.682 208.8 436.002 208.52C436.329 208.233 436.732 208.007 437.212 207.84C437.699 207.667 438.259 207.58 438.892 207.58C439.599 207.58 440.242 207.697 440.822 207.93C441.402 208.163 441.886 208.47 442.272 208.85L441.712 209.74ZM446.801 207.74V218H444.321V207.74H446.801ZM447.141 204.75C447.141 204.963 447.098 205.163 447.011 205.35C446.925 205.537 446.808 205.7 446.661 205.84C446.521 205.98 446.355 206.093 446.161 206.18C445.968 206.26 445.761 206.3 445.541 206.3C445.328 206.3 445.125 206.26 444.931 206.18C444.745 206.093 444.581 205.98 444.441 205.84C444.301 205.7 444.188 205.537 444.101 205.35C444.021 205.163 443.981 204.963 443.981 204.75C443.981 204.53 444.021 204.323 444.101 204.13C444.188 203.937 444.301 203.77 444.441 203.63C444.581 203.49 444.745 203.38 444.931 203.3C445.125 203.213 445.328 203.17 445.541 203.17C445.761 203.17 445.968 203.213 446.161 203.3C446.355 203.38 446.521 203.49 446.661 203.63C446.808 203.77 446.925 203.937 447.011 204.13C447.098 204.323 447.141 204.53 447.141 204.75ZM451.63 209C451.836 208.793 452.053 208.603 452.28 208.43C452.513 208.25 452.756 208.1 453.01 207.98C453.27 207.853 453.546 207.757 453.84 207.69C454.133 207.617 454.453 207.58 454.8 207.58C455.36 207.58 455.856 207.677 456.29 207.87C456.723 208.057 457.083 208.323 457.37 208.67C457.663 209.01 457.883 209.42 458.03 209.9C458.183 210.373 458.26 210.897 458.26 211.47V218H455.79V211.47C455.79 210.843 455.646 210.36 455.36 210.02C455.073 209.673 454.636 209.5 454.05 209.5C453.623 209.5 453.223 209.597 452.85 209.79C452.476 209.983 452.123 210.247 451.79 210.58V218H449.32V207.74H450.83C451.15 207.74 451.36 207.89 451.46 208.19L451.63 209ZM464.359 212.62C464.665 212.62 464.932 212.58 465.159 212.5C465.385 212.413 465.572 212.297 465.719 212.15C465.872 212.003 465.985 211.827 466.059 211.62C466.139 211.413 466.179 211.187 466.179 210.94C466.179 210.433 466.025 210.033 465.719 209.74C465.419 209.44 464.965 209.29 464.359 209.29C463.752 209.29 463.295 209.44 462.989 209.74C462.689 210.033 462.539 210.433 462.539 210.94C462.539 211.18 462.575 211.403 462.649 211.61C462.729 211.817 462.842 211.997 462.989 212.15C463.142 212.297 463.332 212.413 463.559 212.5C463.792 212.58 464.059 212.62 464.359 212.62ZM467.149 218.46C467.149 218.26 467.089 218.097 466.969 217.97C466.849 217.843 466.685 217.747 466.479 217.68C466.272 217.607 466.029 217.553 465.749 217.52C465.475 217.487 465.182 217.463 464.869 217.45C464.562 217.43 464.242 217.413 463.909 217.4C463.582 217.387 463.262 217.36 462.949 217.32C462.675 217.473 462.452 217.653 462.279 217.86C462.112 218.067 462.029 218.307 462.029 218.58C462.029 218.76 462.072 218.927 462.159 219.08C462.252 219.24 462.395 219.377 462.589 219.49C462.789 219.603 463.045 219.69 463.359 219.75C463.672 219.817 464.055 219.85 464.509 219.85C464.969 219.85 465.365 219.813 465.699 219.74C466.032 219.673 466.305 219.577 466.519 219.45C466.739 219.33 466.899 219.183 466.999 219.01C467.099 218.843 467.149 218.66 467.149 218.46ZM469.609 208.09V209.01C469.609 209.303 469.432 209.483 469.079 209.55L468.159 209.72C468.299 210.073 468.369 210.46 468.369 210.88C468.369 211.387 468.265 211.847 468.059 212.26C467.859 212.667 467.579 213.013 467.219 213.3C466.859 213.587 466.432 213.81 465.939 213.97C465.452 214.123 464.925 214.2 464.359 214.2C464.159 214.2 463.965 214.19 463.779 214.17C463.592 214.15 463.409 214.123 463.229 214.09C462.909 214.283 462.749 214.5 462.749 214.74C462.749 214.947 462.842 215.1 463.029 215.2C463.222 215.293 463.475 215.36 463.789 215.4C464.102 215.44 464.459 215.467 464.859 215.48C465.259 215.487 465.669 215.507 466.089 215.54C466.509 215.573 466.919 215.633 467.319 215.72C467.719 215.8 468.075 215.93 468.389 216.11C468.702 216.29 468.952 216.537 469.139 216.85C469.332 217.157 469.429 217.553 469.429 218.04C469.429 218.493 469.315 218.933 469.089 219.36C468.869 219.787 468.545 220.167 468.119 220.5C467.699 220.833 467.179 221.1 466.559 221.3C465.945 221.507 465.245 221.61 464.459 221.61C463.685 221.61 463.012 221.533 462.439 221.38C461.865 221.233 461.389 221.033 461.009 220.78C460.629 220.533 460.345 220.247 460.159 219.92C459.972 219.593 459.879 219.253 459.879 218.9C459.879 218.42 460.022 218.02 460.309 217.7C460.602 217.373 461.002 217.113 461.509 216.92C461.235 216.78 461.019 216.593 460.859 216.36C460.699 216.127 460.619 215.82 460.619 215.44C460.619 215.287 460.645 215.13 460.699 214.97C460.759 214.803 460.842 214.64 460.949 214.48C461.062 214.32 461.202 214.17 461.369 214.03C461.535 213.883 461.732 213.753 461.959 213.64C461.439 213.36 461.029 212.987 460.729 212.52C460.435 212.053 460.289 211.507 460.289 210.88C460.289 210.373 460.389 209.917 460.589 209.51C460.795 209.097 461.079 208.747 461.439 208.46C461.805 208.167 462.235 207.943 462.729 207.79C463.229 207.637 463.772 207.56 464.359 207.56C464.799 207.56 465.212 207.607 465.599 207.7C465.985 207.787 466.339 207.917 466.659 208.09H469.609ZM492.108 203.54V218H489.738V208.66C489.738 208.287 489.758 207.883 489.798 207.45L485.428 215.66C485.222 216.053 484.905 216.25 484.478 216.25H484.098C483.672 216.25 483.355 216.053 483.148 215.66L478.728 207.42C478.748 207.64 478.765 207.857 478.778 208.07C478.792 208.283 478.798 208.48 478.798 208.66V218H476.428V203.54H478.458C478.578 203.54 478.682 203.543 478.768 203.55C478.855 203.557 478.932 203.573 478.998 203.6C479.072 203.627 479.135 203.67 479.188 203.73C479.248 203.79 479.305 203.87 479.358 203.97L483.688 212C483.802 212.213 483.905 212.433 483.998 212.66C484.098 212.887 484.195 213.12 484.288 213.36C484.382 213.113 484.478 212.877 484.578 212.65C484.678 212.417 484.785 212.193 484.898 211.98L489.168 203.97C489.222 203.87 489.278 203.79 489.338 203.73C489.398 203.67 489.462 203.627 489.528 203.6C489.602 203.573 489.682 203.557 489.768 203.55C489.855 203.543 489.958 203.54 490.078 203.54H492.108ZM500.111 213.62C499.397 213.653 498.797 213.717 498.311 213.81C497.824 213.897 497.434 214.01 497.141 214.15C496.847 214.29 496.637 214.453 496.511 214.64C496.384 214.827 496.321 215.03 496.321 215.25C496.321 215.683 496.447 215.993 496.701 216.18C496.961 216.367 497.297 216.46 497.711 216.46C498.217 216.46 498.654 216.37 499.021 216.19C499.394 216.003 499.757 215.723 500.111 215.35V213.62ZM494.451 209.17C495.631 208.09 497.051 207.55 498.711 207.55C499.311 207.55 499.847 207.65 500.321 207.85C500.794 208.043 501.194 208.317 501.521 208.67C501.847 209.017 502.094 209.433 502.261 209.92C502.434 210.407 502.521 210.94 502.521 211.52V218H501.401C501.167 218 500.987 217.967 500.861 217.9C500.734 217.827 500.634 217.683 500.561 217.47L500.341 216.73C500.081 216.963 499.827 217.17 499.581 217.35C499.334 217.523 499.077 217.67 498.811 217.79C498.544 217.91 498.257 218 497.951 218.06C497.651 218.127 497.317 218.16 496.951 218.16C496.517 218.16 496.117 218.103 495.751 217.99C495.384 217.87 495.067 217.693 494.801 217.46C494.534 217.227 494.327 216.937 494.181 216.59C494.034 216.243 493.961 215.84 493.961 215.38C493.961 215.12 494.004 214.863 494.091 214.61C494.177 214.35 494.317 214.103 494.511 213.87C494.711 213.637 494.967 213.417 495.281 213.21C495.594 213.003 495.977 212.823 496.431 212.67C496.891 212.517 497.424 212.393 498.031 212.3C498.637 212.2 499.331 212.14 500.111 212.12V211.52C500.111 210.833 499.964 210.327 499.671 210C499.377 209.667 498.954 209.5 498.401 209.5C498.001 209.5 497.667 209.547 497.401 209.64C497.141 209.733 496.911 209.84 496.711 209.96C496.511 210.073 496.327 210.177 496.161 210.27C496.001 210.363 495.821 210.41 495.621 210.41C495.447 210.41 495.301 210.367 495.181 210.28C495.061 210.187 494.964 210.08 494.891 209.96L494.451 209.17ZM511.287 210.36C511.007 210.02 510.7 209.78 510.367 209.64C510.04 209.5 509.687 209.43 509.307 209.43C508.934 209.43 508.597 209.5 508.297 209.64C507.997 209.78 507.74 209.993 507.527 210.28C507.314 210.56 507.15 210.92 507.037 211.36C506.924 211.793 506.867 212.307 506.867 212.9C506.867 213.5 506.914 214.01 507.007 214.43C507.107 214.843 507.247 215.183 507.427 215.45C507.607 215.71 507.827 215.9 508.087 216.02C508.347 216.133 508.637 216.19 508.957 216.19C509.47 216.19 509.907 216.083 510.267 215.87C510.627 215.657 510.967 215.353 511.287 214.96V210.36ZM513.757 203.14V218H512.247C511.92 218 511.714 217.85 511.627 217.55L511.417 216.56C511.004 217.033 510.527 217.417 509.987 217.71C509.454 218.003 508.83 218.15 508.117 218.15C507.557 218.15 507.044 218.033 506.577 217.8C506.11 217.567 505.707 217.23 505.367 216.79C505.034 216.343 504.774 215.793 504.587 215.14C504.407 214.487 504.317 213.74 504.317 212.9C504.317 212.14 504.42 211.433 504.627 210.78C504.834 210.127 505.13 209.56 505.517 209.08C505.904 208.6 506.367 208.227 506.907 207.96C507.447 207.687 508.054 207.55 508.727 207.55C509.3 207.55 509.79 207.64 510.197 207.82C510.604 208 510.967 208.243 511.287 208.55V203.14H513.757ZM522.805 211.69C522.805 211.37 522.758 211.07 522.665 210.79C522.578 210.503 522.445 210.253 522.265 210.04C522.085 209.827 521.855 209.66 521.575 209.54C521.301 209.413 520.981 209.35 520.615 209.35C519.901 209.35 519.338 209.553 518.925 209.96C518.518 210.367 518.258 210.943 518.145 211.69H522.805ZM518.095 213.18C518.135 213.707 518.228 214.163 518.375 214.55C518.521 214.93 518.715 215.247 518.955 215.5C519.195 215.747 519.478 215.933 519.805 216.06C520.138 216.18 520.505 216.24 520.905 216.24C521.305 216.24 521.648 216.193 521.935 216.1C522.228 216.007 522.481 215.903 522.695 215.79C522.915 215.677 523.105 215.573 523.265 215.48C523.431 215.387 523.591 215.34 523.745 215.34C523.951 215.34 524.105 215.417 524.205 215.57L524.915 216.47C524.641 216.79 524.335 217.06 523.995 217.28C523.655 217.493 523.298 217.667 522.925 217.8C522.558 217.927 522.181 218.017 521.795 218.07C521.415 218.123 521.045 218.15 520.685 218.15C519.971 218.15 519.308 218.033 518.695 217.8C518.081 217.56 517.548 217.21 517.095 216.75C516.641 216.283 516.285 215.71 516.025 215.03C515.765 214.343 515.635 213.55 515.635 212.65C515.635 211.95 515.748 211.293 515.975 210.68C516.201 210.06 516.525 209.523 516.945 209.07C517.371 208.61 517.888 208.247 518.495 207.98C519.108 207.713 519.798 207.58 520.565 207.58C521.211 207.58 521.808 207.683 522.355 207.89C522.901 208.097 523.371 208.4 523.765 208.8C524.158 209.193 524.465 209.68 524.685 210.26C524.911 210.833 525.025 211.49 525.025 212.23C525.025 212.603 524.985 212.857 524.905 212.99C524.825 213.117 524.671 213.18 524.445 213.18H518.095ZM534.831 205.68V209.69H539.891V211.76H534.831V215.85H541.251V218H532.131V203.54H541.251V205.68H534.831ZM548.607 213.62C547.893 213.653 547.293 213.717 546.807 213.81C546.32 213.897 545.93 214.01 545.637 214.15C545.343 214.29 545.133 214.453 545.007 214.64C544.88 214.827 544.817 215.03 544.817 215.25C544.817 215.683 544.943 215.993 545.197 216.18C545.457 216.367 545.793 216.46 546.207 216.46C546.713 216.46 547.15 216.37 547.517 216.19C547.89 216.003 548.253 215.723 548.607 215.35V213.62ZM542.947 209.17C544.127 208.09 545.547 207.55 547.207 207.55C547.807 207.55 548.343 207.65 548.817 207.85C549.29 208.043 549.69 208.317 550.017 208.67C550.343 209.017 550.59 209.433 550.757 209.92C550.93 210.407 551.017 210.94 551.017 211.52V218H549.897C549.663 218 549.483 217.967 549.357 217.9C549.23 217.827 549.13 217.683 549.057 217.47L548.837 216.73C548.577 216.963 548.323 217.17 548.077 217.35C547.83 217.523 547.573 217.67 547.307 217.79C547.04 217.91 546.753 218 546.447 218.06C546.147 218.127 545.813 218.16 545.447 218.16C545.013 218.16 544.613 218.103 544.247 217.99C543.88 217.87 543.563 217.693 543.297 217.46C543.03 217.227 542.823 216.937 542.677 216.59C542.53 216.243 542.457 215.84 542.457 215.38C542.457 215.12 542.5 214.863 542.587 214.61C542.673 214.35 542.813 214.103 543.007 213.87C543.207 213.637 543.463 213.417 543.777 213.21C544.09 213.003 544.473 212.823 544.927 212.67C545.387 212.517 545.92 212.393 546.527 212.3C547.133 212.2 547.827 212.14 548.607 212.12V211.52C548.607 210.833 548.46 210.327 548.167 210C547.873 209.667 547.45 209.5 546.897 209.5C546.497 209.5 546.163 209.547 545.897 209.64C545.637 209.733 545.407 209.84 545.207 209.96C545.007 210.073 544.823 210.177 544.657 210.27C544.497 210.363 544.317 210.41 544.117 210.41C543.943 210.41 543.797 210.367 543.677 210.28C543.557 210.187 543.46 210.08 543.387 209.96L542.947 209.17ZM559.603 209.74C559.536 209.847 559.466 209.923 559.393 209.97C559.32 210.01 559.226 210.03 559.113 210.03C558.993 210.03 558.863 209.997 558.723 209.93C558.59 209.863 558.433 209.79 558.253 209.71C558.073 209.623 557.866 209.547 557.633 209.48C557.406 209.413 557.136 209.38 556.823 209.38C556.336 209.38 555.953 209.483 555.673 209.69C555.4 209.897 555.263 210.167 555.263 210.5C555.263 210.72 555.333 210.907 555.473 211.06C555.62 211.207 555.81 211.337 556.043 211.45C556.283 211.563 556.553 211.667 556.853 211.76C557.153 211.847 557.456 211.943 557.763 212.05C558.076 212.157 558.383 212.28 558.683 212.42C558.983 212.553 559.25 212.727 559.483 212.94C559.723 213.147 559.913 213.397 560.053 213.69C560.2 213.983 560.273 214.337 560.273 214.75C560.273 215.243 560.183 215.7 560.003 216.12C559.83 216.533 559.57 216.893 559.223 217.2C558.876 217.5 558.446 217.737 557.933 217.91C557.426 218.077 556.84 218.16 556.173 218.16C555.82 218.16 555.473 218.127 555.133 218.06C554.8 218 554.476 217.913 554.163 217.8C553.856 217.687 553.57 217.553 553.303 217.4C553.043 217.247 552.813 217.08 552.613 216.9L553.183 215.96C553.256 215.847 553.343 215.76 553.443 215.7C553.543 215.64 553.67 215.61 553.823 215.61C553.976 215.61 554.12 215.653 554.253 215.74C554.393 215.827 554.553 215.92 554.733 216.02C554.913 216.12 555.123 216.213 555.363 216.3C555.61 216.387 555.92 216.43 556.293 216.43C556.586 216.43 556.836 216.397 557.043 216.33C557.256 216.257 557.43 216.163 557.563 216.05C557.703 215.937 557.803 215.807 557.863 215.66C557.93 215.507 557.963 215.35 557.963 215.19C557.963 214.95 557.89 214.753 557.743 214.6C557.603 214.447 557.413 214.313 557.173 214.2C556.94 214.087 556.67 213.987 556.363 213.9C556.063 213.807 555.753 213.707 555.433 213.6C555.12 213.493 554.81 213.37 554.503 213.23C554.203 213.083 553.933 212.9 553.693 212.68C553.46 212.46 553.27 212.19 553.123 211.87C552.983 211.55 552.913 211.163 552.913 210.71C552.913 210.29 552.996 209.89 553.163 209.51C553.33 209.13 553.573 208.8 553.893 208.52C554.22 208.233 554.623 208.007 555.103 207.84C555.59 207.667 556.15 207.58 556.783 207.58C557.49 207.58 558.133 207.697 558.713 207.93C559.293 208.163 559.776 208.47 560.163 208.85L559.603 209.74ZM571.257 207.74L565.667 220.82C565.593 220.993 565.497 221.123 565.377 221.21C565.263 221.303 565.087 221.35 564.847 221.35H563.007L564.927 217.23L560.777 207.74H562.947C563.14 207.74 563.29 207.787 563.397 207.88C563.51 207.973 563.593 208.08 563.647 208.2L565.827 213.52C565.9 213.7 565.96 213.88 566.007 214.06C566.06 214.24 566.11 214.423 566.157 214.61C566.217 214.423 566.277 214.24 566.337 214.06C566.397 213.873 566.463 213.69 566.537 213.51L568.597 208.2C568.65 208.067 568.737 207.957 568.857 207.87C568.983 207.783 569.123 207.74 569.277 207.74H571.257Z" fill="white"/>
<path d="M442.085 88.2552L426.508 97.3997L410.793 88.4958L410.654 70.4492L426.23 61.3048L441.946 70.2086L442.085 88.2552Z" stroke="white" stroke-width="2"/>
<path d="M436.501 85.1491L426.605 90.9584L416.622 85.3019L416.533 73.8379L426.429 68.0286L436.412 73.6851L436.501 85.1491Z" stroke="white" stroke-width="2"/>
<path d="M431.599 82.379L426.547 85.3449L421.45 82.457L421.405 76.605L426.457 73.6391L431.554 76.527L431.599 82.379Z" stroke="white" stroke-width="2"/>
</g>
<defs>
<filter id="filter0_d_961_33321" x="0" y="0" width="852" height="275" filterUnits="userSpaceOnUse" color-interpolation-filters="sRGB">
<feFlood flood-opacity="0" result="BackgroundImageFix"/>
<feColorMatrix in="SourceAlpha" type="matrix" values="0 0 0 0 0 0 0 0 0 0 0 0 0 0 0 0 0 0 127 0" result="hardAlpha"/>
<feOffset dy="4"/>
<feGaussianBlur stdDeviation="2"/>
<feComposite in2="hardAlpha" operator="out"/>
<feColorMatrix type="matrix" values="0 0 0 0 0 0 0 0 0 0 0 0 0 0 0 0 0 0 0.25 0"/>
<feBlend mode="normal" in2="BackgroundImageFix" result="effect1_dropShadow_961_33321"/>
<feBlend mode="normal" in="SourceGraphic" in2="effect1_dropShadow_961_33321" result="shape"/>
</filter>
<filter id="filter1_d_961_33321" x="0" y="0" width="852" height="275" filterUnits="userSpaceOnUse" color-interpolation-filters="sRGB">
<feFlood flood-opacity="0" result="BackgroundImageFix"/>
<feColorMatrix in="SourceAlpha" type="matrix" values="0 0 0 0 0 0 0 0 0 0 0 0 0 0 0 0 0 0 127 0" result="hardAlpha"/>
<feOffset dy="4"/>
<feGaussianBlur stdDeviation="2"/>
<feComposite in2="hardAlpha" operator="out"/>
<feColorMatrix type="matrix" values="0 0 0 0 0 0 0 0 0 0 0 0 0 0 0 0 0 0 0.25 0"/>
<feBlend mode="normal" in2="BackgroundImageFix" result="effect1_dropShadow_961_33321"/>
<feBlend mode="normal" in="SourceGraphic" in2="effect1_dropShadow_961_33321" result="shape"/>
</filter>
<linearGradient id="paint0_linear_961_33321" x1="848" y1="267" x2="76.4569" y2="12.5944" gradientUnits="userSpaceOnUse">
<stop stop-color="#E20000"/>
<stop offset="1" stop-color="#F89D4C"/>
</linearGradient>
</defs>
</svg>
